<?xml version="1.0" standalone="no"?>
<!DOCTYPE svg PUBLIC "-//W3C//DTD SVG 1.1//EN" "http://www.w3.org/Graphics/SVG/1.1/DTD/svg11.dtd" >
<svg>
<metadata>
Created by FontForge 20110222 at Wed Jun  4 15:44:29 2014
 By deploy user
Copyright (c) 1988, 1990, 1993, 2003 Linotype Library GmbH, www.linotype.com. All rights reserved. Copyright (c) 1988, 1990, 1993 Adobe Systems Incorporated. All Rights Reserved.
</metadata>
<defs>
<font id="HelveticaNeueLTPro-BlkCnO" horiz-adv-x="520" >
  <font-face 
    font-family="HelveticaNeueLT Pro 97 BlkCn"
    font-weight="900"
    font-style="italic"
    font-stretch="normal"
    units-per-em="1000"
    panose-1="2 11 8 6 3 7 2 4 2 4"
    ascent="714"
    descent="-286"
    x-height="541"
    cap-height="714"
    bbox="-171 -233 1145.38 953"
    underline-thickness="50"
    underline-position="-50"
    slope="-12"
    unicode-range="U+000D-FB02"
  />
<missing-glyph horiz-adv-x="512" 
d="M222 117h56v67h-56v-67zM225 234h46q0 52 6 72q6 19 43 52q37 34 50 60t13 60q0 59 -35 95t-89 36q-56 0 -92 -34t-43 -103l50 -8q11 95 82 95q31 0 53.5 -24.5t22.5 -60.5q0 -20 -9.5 -37t-40.5 -46q-31 -31 -46 -59q-13 -25 -13 -81zM462 50h-412v617h412v-617z
M512 718h-512v-718h512v718z" />
    <glyph glyph-name="IJ" unicode="IJ" horiz-adv-x="755" 
d="M37 0l148 714h186l-148 -714h-186zM687 714h186l-102 -491q-26 -126 -95 -181.5t-187 -55.5q-114 0 -153.5 58t-15.5 173l3 15h168l-8 -35q-5 -28 -5 -42q0 -43 36 -43q23 0 38.5 18.5t26.5 66.5z" />
    <glyph glyph-name="ij" unicode="ij" horiz-adv-x="517" 
d="M159 580l28 134h180l-28 -134h-180zM39 0l112 541h180l-112 -541h-180zM418 580l28 134h180l-28 -134h-180zM295 -12l115 553h180l-120 -576q-19 -86 -66.5 -113.5t-129.5 -27.5q-37 0 -79 5l25 121q36 0 53 7.5t22 30.5z" />
    <glyph glyph-name="napostrophe" unicode="&#x22;n" horiz-adv-x="554" 
d="M70 0l112 541h174l-14 -66h2q53 80 148 80q66 0 96.5 -33t13.5 -114l-84 -408h-180l74 357q7 34 0 49t-31 15t-37 -15t-20 -49l-74 -357h-180zM159 714l22 105h142l-18 -86q-19 -97 -142 -97l9 42q27 5 37 12.5t15 23.5h-65z" />
    <glyph glyph-name="fi" unicode="fi" horiz-adv-x="556" 
d="M62 0l87 420h-62l25 121h62l8 39q18 82 61.5 115t136.5 33q43 0 85 -6l-24 -113q-12 3 -29 3q-44 0 -51 -38l-7 -33h73l-25 -121h-73l-87 -420h-180zM457 580l28 134h180l-28 -134h-180zM337 0l112 541h180l-112 -541h-180z" />
    <glyph glyph-name="fl" unicode="fl" horiz-adv-x="556" 
d="M62 0l87 420h-62l25 121h62l8 39q18 82 61.5 115t136.5 33q43 0 85 -6l-24 -113q-12 3 -29 3q-44 0 -51 -38l-7 -33h73l-25 -121h-73l-87 -420h-180zM337 0l148 714h180l-148 -714h-180z" />
    <glyph glyph-name=".notdef" horiz-adv-x="512" 
d="M222 117h56v67h-56v-67zM225 234h46q0 52 6 72q6 19 43 52q37 34 50 60t13 60q0 59 -35 95t-89 36q-56 0 -92 -34t-43 -103l50 -8q11 95 82 95q31 0 53.5 -24.5t22.5 -60.5q0 -20 -9.5 -37t-40.5 -46q-31 -31 -46 -59q-13 -25 -13 -81zM462 50h-412v617h412v-617z
M512 718h-512v-718h512v718z" />
    <glyph glyph-name=".null" horiz-adv-x="500" 
 />
    <glyph glyph-name=".null" horiz-adv-x="500" 
 />
    <glyph glyph-name="nonmarkingreturn" horiz-adv-x="333" 
 />
    <glyph glyph-name="CR" unicode="&#xd;" horiz-adv-x="0" 
 />
    <glyph glyph-name="space" unicode=" " horiz-adv-x="260" 
 />
    <glyph glyph-name="exclam" unicode="!" horiz-adv-x="314" 
d="M132 207l36 268l50 239h174l-50 -239l-76 -268h-134zM74 0l32 158h168l-32 -158h-168z" />
    <glyph glyph-name="quotedbl" unicode="&#x22;" horiz-adv-x="481" 
d="M125 340l78 374h140l-78 -374h-140zM356 340l78 374h140l-78 -374h-140z" />
    <glyph glyph-name="numbersign" unicode="#" 
d="M261 0l57 173h-90l-57 -173h-110l57 173h-73l25 116h88l38 116h-73l24 116h88l58 173h110l-58 -173h89l58 173h110l-58 -173h74l-24 -116h-88l-39 -116h74l-25 -116h-88l-57 -173h-110zM306 405l-38 -116h89l39 116h-90z" />
    <glyph glyph-name="dollar" unicode="$" 
d="M184 -104l19 90q-95 10 -134 56t-19 139l6 27h180l-4 -19q-16 -79 45 -79q28 0 48 18.5t26 46.5q6 32 -11 54.5t-47 34t-64 29t-62 37.5t-41 61.5t-1 99.5q37 187 228 217l12 58h92l-12 -58q98 -10 132 -60.5t13 -153.5h-174l3 15q7 32 -2 53.5t-35 21.5q-28 0 -46.5 -18
t-24.5 -44q-6 -28 7 -48.5t37 -32t54 -24.5t59 -26.5t51 -38.5t31 -60.5t-2 -91.5q-21 -100 -83.5 -151t-169.5 -63l-19 -90h-92z" />
    <glyph glyph-name="percent" unicode="%" horiz-adv-x="778" 
d="M124 516q22 105 65.5 148.5t131.5 43.5q87 0 113 -43.5t4 -148.5t-65.5 -148.5t-131.5 -43.5q-87 0 -113 43.5t-4 148.5zM484 178q20 105 64.5 148.5t131.5 43.5t113 -43t5 -149q-22 -105 -65.5 -148.5t-131.5 -43.5q-87 0 -113 43.5t-4 148.5zM246 516q-7 -37 -10 -56.5
t-2 -33.5t6.5 -18t16.5 -4q22 0 34 22t25 90q14 69 12 90.5t-24 21.5q-21 0 -32.5 -21.5t-25.5 -90.5zM172 -14l467 722h110l-467 -722h-110zM606 178q-8 -35 -11.5 -56t-2 -34t7.5 -17.5t17 -4.5q21 0 32 21t27 91q14 69 12 90.5t-24 21.5q-21 0 -32.5 -21.5t-25.5 -90.5z
" />
    <glyph glyph-name="ampersand" unicode="&#x26;" horiz-adv-x="611" 
d="M347 150l-68 129q-52 -34 -59 -72q-8 -34 11 -57.5t49 -23.5q29 0 67 24zM337 568q-6 -27 28 -88q70 52 78 88q5 22 -7.5 36t-35.5 14t-40.5 -14t-22.5 -36zM555 134l69 -134h-198l-23 42q-37 -19 -59 -29t-56 -18.5t-69 -8.5q-95 0 -146 52.5t-32 148.5q28 134 177 207
q-48 93 -34 162q16 74 81 120t156 46q93 0 139 -45.5t30 -120.5q-22 -102 -162 -183l58 -109q27 32 42 84h156q-36 -139 -129 -214z" />
    <glyph glyph-name="quotesingle" unicode="'" horiz-adv-x="260" 
d="M130 340l78 374h140l-78 -374h-140z" />
    <glyph glyph-name="parenleft" unicode="(" horiz-adv-x="314" 
d="M279 -184h-146q-96 222 -48 449q45 225 235 449h146q-163 -200 -213 -449q-52 -252 26 -449z" />
    <glyph glyph-name="parenright" unicode=")" horiz-adv-x="314" 
d="M144 714h146q95 -219 49 -449q-49 -227 -236 -449h-145q161 197 213 449q51 253 -27 449z" />
    <glyph glyph-name="asterisk" unicode="*" horiz-adv-x="406" 
d="M344 322l-52 108l-98 -108l-67 58l98 107l-120 41l51 93l118 -41l28 134h98l-28 -134l136 41l11 -93l-136 -41l54 -107z" />
    <glyph glyph-name="plus" unicode="+" horiz-adv-x="600" 
d="M297 323l38 183h140l-38 -183h183l-29 -140h-183l-38 -183h-140l38 183h-183l29 140h183z" />
    <glyph glyph-name="comma" unicode="," horiz-adv-x="260" 
d="M47 6l40 192h168l-38 -180q-20 -98 -70 -145t-138 -49l18 86q36 4 54.5 23.5t26.5 60.5l3 12h-64z" />
    <glyph glyph-name="hyphen" unicode="-" horiz-adv-x="368" 
d="M72 213l31 152h312l-31 -152h-312z" />
    <glyph glyph-name="period" unicode="." horiz-adv-x="260" 
d="M46 0l41 198h168l-41 -198h-168z" />
    <glyph glyph-name="slash" unicode="/" horiz-adv-x="333" 
d="M-24 -14l380 742h150l-381 -742h-149z" />
    <glyph glyph-name="zero" unicode="0" 
d="M301 464l-49 -234q-15 -75 -8 -101.5t37 -26.5t47.5 27t33.5 101l49 234q15 75 8.5 101.5t-36.5 26.5q-31 0 -49 -27t-33 -101zM91 347q22 107 50.5 177t68 110.5t86 57t111.5 16.5q97 0 142.5 -40.5t45.5 -143.5q0 -73 -22 -177q-31 -142 -73.5 -221t-99 -109.5
t-143.5 -30.5q-98 0 -143.5 40.5t-45.5 143.5q0 68 23 177z" />
    <glyph glyph-name="one" unicode="1" 
d="M369 0h-186l100 482h-134l24 116q86 0 132 24t77 86h134z" />
    <glyph glyph-name="two" unicode="2" 
d="M296 468h-174q26 120 80 174q66 66 202 66q129 0 167.5 -51t20.5 -142q-25 -122 -132 -210l-132 -107q-48 -38 -58 -58h244l-29 -140h-466q33 161 162 271l150 126q34 28 50 52.5t24 63.5q17 79 -31 79q-53 0 -72 -94z" />
    <glyph glyph-name="three" unicode="3" 
d="M297 494h-168q27 112 92 162q64 52 175 52q124 0 163.5 -48.5t18.5 -147.5q-11 -50 -42.5 -90t-85.5 -51l-1 -2q108 -22 80 -155q-24 -118 -92.5 -173t-185.5 -55q-123 0 -169 50.5t-19 175.5h174q-12 -52 -5 -84q6 -26 37 -26q32 0 46 21t28 89q9 50 -2.5 69t-47.5 19
h-47l24 116h27q44 0 67.5 20.5t34.5 79.5q8 44 1 60t-32 16q-27 0 -43 -21.5t-28 -76.5z" />
    <glyph glyph-name="four" unicode="4" 
d="M43 132l29 140l312 422h202l-89 -428h62l-28 -134h-62l-27 -132h-174l27 132h-252zM211 266h118l49 236h-2z" />
    <glyph glyph-name="five" unicode="5" 
d="M87 301l98 393h411l-29 -140h-269l-33 -119q67 52 142 52q176 0 130 -225q-29 -143 -95 -209.5t-194 -66.5q-233 0 -190 203l5 23h174l-5 -24q-9 -50 -1 -68t34 -18q20 0 32 9.5t25 42.5t27 100q12 60 4.5 83.5t-34.5 23.5q-51 0 -64 -60h-168z" />
    <glyph glyph-name="six" unicode="6" 
d="M256 218q-14 -68 -8 -92t36 -24q27 0 44.5 25t31.5 91q14 68 8 92t-36 24q-27 0 -44.5 -25t-31.5 -91zM596 526h-174q6 36 -3 52q-8 14 -34 14q-22 0 -40.5 -17.5t-24.5 -49.5l-24 -113h2q17 26 53 41t78 15q82 0 115.5 -49t8.5 -166q-29 -140 -101.5 -203.5
t-190.5 -63.5q-63 0 -104 14.5t-66.5 49.5t-27 92.5t14.5 144.5l17 79q15 71 30 120t39 94t56.5 71t79.5 41.5t110 15.5q66 0 109 -15t59.5 -40.5t22 -58.5t-4.5 -68z" />
    <glyph glyph-name="seven" unicode="7" 
d="M137 542l32 152h462l-29 -139q-98 -115 -179.5 -267.5t-120.5 -287.5h-192q44 143 123.5 284.5t188.5 257.5h-285z" />
    <glyph glyph-name="eight" unicode="8" 
d="M248 207q-11 -63 -3 -84t36 -21t45.5 22.5t31.5 82.5q10 62 2 83t-36 21t-46 -22.5t-30 -81.5zM317 507q-20 -86 30 -86q23 0 39 18.5t27 67.5q16 85 -30 85q-48 0 -66 -85zM257 -14q-121 0 -171 49.5t-24 174.5q15 67 54.5 111t97.5 52v2q-80 19 -80 97q0 21 5 46
q41 190 268 190q118 0 162.5 -50.5t25.5 -139.5q-25 -119 -135 -143v-2q112 -22 84 -163q-27 -125 -96 -174.5t-191 -49.5z" />
    <glyph glyph-name="nine" unicode="9" 
d="M303 476q-14 -68 -8 -92t36 -24q27 0 44.5 25t31.5 91q14 68 8 92t-35 24q-28 0 -45.5 -25t-31.5 -91zM67 168h174q-6 -36 4 -52q8 -14 34 -14q21 0 39.5 17t24.5 49l24 113h-2q-17 -25 -53.5 -40t-77.5 -15q-82 0 -115.5 48.5t-8.5 166.5q29 140 102 203.5t191 63.5
q127 0 172 -67t10 -235l-16 -78q-18 -89 -39 -146.5t-56 -105t-89 -69t-131 -21.5q-66 0 -109 15t-60 40.5t-22.5 58.5t4.5 68z" />
    <glyph glyph-name="colon" unicode=":" horiz-adv-x="260" 
d="M46 0l41 198h168l-41 -198h-168zM117 343l41 198h168l-41 -198h-168z" />
    <glyph glyph-name="semicolon" unicode=";" horiz-adv-x="260" 
d="M117 343l41 198h168l-41 -198h-168zM47 6l40 192h168l-38 -180q-20 -98 -70 -145t-138 -49l18 86q36 4 54.5 23.5t26.5 60.5l3 12h-64z" />
    <glyph glyph-name="semicolon" unicode="&#x37e;" horiz-adv-x="260" 
d="M117 343l41 198h168l-41 -198h-168zM47 6l40 192h168l-38 -180q-20 -98 -70 -145t-138 -49l18 86q36 4 54.5 23.5t26.5 60.5l3 12h-64z" />
    <glyph glyph-name="less" unicode="&#x3c;" horiz-adv-x="600" 
d="M86 190l26 126l549 208l-27 -134l-367 -137l310 -137l-28 -134z" />
    <glyph glyph-name="equal" unicode="=" horiz-adv-x="600" 
d="M61 71l29 140h506l-29 -140h-506zM108 295l29 140h506l-29 -140h-506z" />
    <glyph glyph-name="greater" unicode="&#x3e;" horiz-adv-x="600" 
d="M43 -18l28 134l366 137l-309 137l27 134l463 -208l-26 -126z" />
    <glyph glyph-name="question" unicode="?" horiz-adv-x="500" 
d="M160 0l32 158h168l-32 -158h-168zM301 488h-168q28 130 96 186q65 54 178 54q106 0 148 -52.5t23 -145.5q-20 -90 -77 -142l-90 -83q-30 -27 -43 -98h-162l5 28q22 106 76 157l73 67q36 33 47 88q13 65 -31 65q-26 0 -43 -24.5t-32 -99.5z" />
    <glyph glyph-name="at" unicode="@" horiz-adv-x="800" 
d="M640 534h92l-84 -211q-6 -13 -17 -46q-4 -22 13 -22q31 0 67.5 40.5t52.5 116.5q21 105 -39.5 164.5t-177.5 59.5q-125 0 -216 -78t-118 -202q-27 -128 39 -203t196 -75q110 0 204 59h110q-140 -151 -365 -151q-154 0 -240 108.5t-54 262.5t163 262.5t285 108.5
q152 0 244.5 -83.5t63.5 -217.5q-16 -80 -72 -144t-120 -95t-119 -31q-24 0 -37.5 11.5t-11.5 32.5h-4q-46 -44 -115 -44q-64 0 -99.5 49t-20.5 124q19 91 90.5 159.5t160.5 68.5q79 0 113 -61zM385 346q-7 -33 8.5 -56t47.5 -23q44 0 79 30.5t44 71.5q8 35 -9 57t-53 22
q-38 0 -73 -32t-44 -70z" />
    <glyph glyph-name="A" unicode="A" horiz-adv-x="556" 
d="M385 265l12 303h-2l-114 -303h104zM-13 0l322 714h234l26 -714h-198l6 125h-148l-44 -125h-198z" />
    <glyph glyph-name="B" unicode="B" horiz-adv-x="574" 
d="M300 308l-37 -174h52q28 0 52 23t33 65q8 40 -6 63t-42 23h-52zM356 580l-30 -146h45q28 0 48 20.5t26 51.5q6 32 -5 53t-39 21h-45zM50 0l148 714h281q97 0 135.5 -47.5t22.5 -130.5q-13 -61 -50 -105t-95 -55l-1 -2q64 -6 87.5 -53.5t10.5 -109.5q-19 -98 -83 -154.5
t-175 -56.5h-281z" />
    <glyph glyph-name="C" unicode="C" horiz-adv-x="537" 
d="M424 457l8 40q12 61 5.5 83t-34.5 22q-41 0 -62 -47t-52 -198q-11 -53 -17 -85.5t-10 -63t-3.5 -46.5t5 -28.5t13.5 -17t24 -4.5q34 0 52 35.5t40 139.5h180l-11 -53q-50 -248 -287 -248q-151 0 -188 85.5t10 285.5q42 206 115.5 288.5t216.5 82.5q231 0 184 -226l-9 -45
h-180z" />
    <glyph glyph-name="D" unicode="D" horiz-adv-x="574" 
d="M44 0l148 714h270q45 0 78 -10.5t53 -27t31 -44.5t14.5 -55.5t0 -67.5t-9 -73t-15.5 -79q-9 -42 -15.5 -69.5t-17.5 -64.5t-22.5 -61.5t-28 -52.5t-37 -45.5t-46.5 -33.5t-59.5 -23t-73.5 -7h-270zM350 580l-93 -446h37q37 0 57 16.5t35 61t36 145.5q11 52 16.5 84
t8 59.5t0.5 41t-10 23t-19.5 12.5t-30.5 3h-37z" />
    <glyph glyph-name="E" unicode="E" horiz-adv-x="500" 
d="M44 0l148 714h423l-32 -152h-237l-25 -122h222l-30 -146h-222l-30 -142h246l-31 -152h-432z" />
    <glyph glyph-name="F" unicode="F" horiz-adv-x="481" 
d="M44 0l148 714h423l-32 -152h-237l-25 -122h222l-30 -146h-222l-61 -294h-186z" />
    <glyph glyph-name="G" unicode="G" horiz-adv-x="556" 
d="M338 262l26 126h240l-80 -388h-126l9 63h-2q-47 -77 -170 -77q-47 0 -79 10t-49.5 34t-25.5 51.5t-5 74.5t9.5 90t20.5 111q19 95 43.5 159.5t63.5 114.5t97 73.5t139 23.5q105 0 153 -58t23 -182h-180q11 57 7 83q-4 31 -36 31q-44 0 -65.5 -47t-52.5 -198
q-11 -53 -17 -85.5t-10 -63t-3.5 -46.5t5 -28.5t13.5 -17t24 -4.5q32 0 54 31.5t40 118.5h-66z" />
    <glyph glyph-name="H" unicode="H" horiz-adv-x="574" 
d="M44 0l148 714h186l-55 -262h114l55 262h186l-148 -714h-186l61 294h-114l-61 -294h-186z" />
    <glyph glyph-name="I" unicode="I" horiz-adv-x="260" 
d="M37 0l148 714h186l-148 -714h-186z" />
    <glyph glyph-name="J" unicode="J" horiz-adv-x="481" 
d="M413 714h186l-102 -491q-26 -126 -95 -181.5t-187 -55.5q-114 0 -153.5 58t-15.5 173l3 15h168l-8 -35q-5 -28 -5 -42q0 -43 36 -43q23 0 38.5 18.5t26.5 66.5z" />
    <glyph glyph-name="K" unicode="K" horiz-adv-x="556" 
d="M37 0l148 714h186l-57 -274h2l195 274h198l-245 -312l119 -402h-212l-58 249l-51 -60l-39 -189h-186z" />
    <glyph glyph-name="L" unicode="L" horiz-adv-x="463" 
d="M44 0l148 714h186l-117 -562h229l-31 -152h-415z" />
    <glyph glyph-name="M" unicode="M" horiz-adv-x="758" 
d="M37 0l148 714h266l-13 -423h2l163 423h266l-148 -714h-174l110 532h-2l-209 -532h-134l11 532h-2l-110 -532h-174z" />
    <glyph glyph-name="N" unicode="N" horiz-adv-x="592" 
d="M44 0l148 714h208l28 -440h2l92 440h174l-148 -714h-204l-33 441h-2l-91 -441h-174z" />
    <glyph glyph-name="O" unicode="O" horiz-adv-x="556" 
d="M289 357q-11 -53 -17 -85.5t-10 -63t-3.5 -46.5t5 -28.5t13.5 -17t24 -4.5q41 0 62 47t52 198q11 53 17 85.5t10 63t3.5 46.5t-5 28.5t-13.5 17t-24 4.5q-41 0 -62 -47t-52 -198zM97 357q42 202 116.5 286.5t215.5 84.5t181 -85.5t-3 -285.5q-42 -202 -116.5 -286.5
t-215.5 -84.5t-181 85.5t3 285.5z" />
    <glyph glyph-name="P" unicode="P" horiz-adv-x="537" 
d="M343 580l-36 -174h35q73 0 90 87q18 87 -54 87h-35zM37 0l148 714h279q102 0 141.5 -61t18.5 -159q-47 -222 -280 -222h-65l-56 -272h-186z" />
    <glyph glyph-name="Q" unicode="Q" horiz-adv-x="556" 
d="M554 -22l-132 -97l-79 110q-5 -1 -16 -2t-17 -2q-5 -1 -17 -1h-18q-141 0 -181 85.5t3 285.5q42 202 116.5 286.5t215.5 84.5t181 -85.5t-3 -285.5q-44 -207 -121 -290zM289 357q-11 -53 -17 -85.5t-10 -63t-3.5 -46.5t5 -28.5t13.5 -17t24 -4.5q41 0 62 47t52 198
q11 53 17 85.5t10 63t3.5 46.5t-5 28.5t-13.5 17t-24 4.5q-41 0 -62 -47t-52 -198z" />
    <glyph glyph-name="R" unicode="R" horiz-adv-x="574" 
d="M350 580l-35 -168h37q39 0 63 22.5t33 62.5q9 44 -5.5 63.5t-56.5 19.5h-36zM44 0l148 714h291q101 0 138 -51.5t18 -138.5q-30 -151 -157 -170v-2q63 -6 81 -45t2 -115l-12 -61q-18 -83 -12 -99q6 -15 17 -22l-2 -10h-198q-4 12 -4 33q0 26 14 103l10 48q12 61 3.5 81.5
t-43.5 20.5h-49l-59 -286h-186z" />
    <glyph glyph-name="S" unicode="S" horiz-adv-x="537" 
d="M601 508h-174l4 17q14 77 -37 77q-28 0 -46.5 -18.5t-24.5 -44.5q-6 -28 6 -49t36 -33t54 -26t59 -28.5t51.5 -41t30.5 -62.5t-3 -93q-45 -220 -298 -220q-120 0 -170 46.5t-29 154.5l6 25h180l-4 -17q-18 -83 44 -83q28 0 48 19.5t26 49.5q6 28 -6 49t-35.5 32.5
t-52 25.5t-56 28t-48.5 39t-29.5 60t2.5 90q48 223 281 223q122 0 165.5 -52.5t19.5 -167.5z" />
    <glyph glyph-name="T" unicode="T" horiz-adv-x="462" 
d="M138 0l115 556h-140l33 158h466l-33 -158h-140l-115 -556h-186z" />
    <glyph glyph-name="U" unicode="U" horiz-adv-x="556" 
d="M184 714h186l-107 -515q-5 -28 -5 -43q0 -44 43 -44q28 0 45.5 19t28.5 68l107 515h186l-97 -468q-31 -144 -102 -202t-194 -58t-171 58t-17 202z" />
    <glyph glyph-name="V" unicode="V" 
d="M140 0l-6 714h198l-37 -538h2l187 538h198l-302 -714h-240z" />
    <glyph glyph-name="W" unicode="W" horiz-adv-x="778" 
d="M283 220l170 494h168l-30 -494h2l153 494h180l-270 -714h-204l37 480h-2l-161 -480h-204l26 714h180l-47 -494h2z" />
    <glyph glyph-name="X" unicode="X" horiz-adv-x="536" 
d="M232 362l-84 352h208l16 -207h2l102 207h208l-228 -352l92 -362h-208l-27 215h-2l-115 -215h-208z" />
    <glyph glyph-name="Y" unicode="Y" 
d="M167 0l58 281l-92 433h204l18 -249h2l122 249h204l-272 -433l-58 -281h-186z" />
    <glyph glyph-name="Z" unicode="Z" horiz-adv-x="481" 
d="M20 0l27 134l313 428h-209l32 152h426l-28 -134l-317 -428h228l-31 -152h-441z" />
    <glyph glyph-name="bracketleft" unicode="[" horiz-adv-x="314" 
d="M5 -184l187 898h270l-26 -126h-102l-135 -646h102l-26 -126h-270z" />
    <glyph glyph-name="backslash" unicode="\" horiz-adv-x="333" 
d="M202 -14l-73 742h150l73 -742h-150z" />
    <glyph glyph-name="bracketright" unicode="]" horiz-adv-x="314" 
d="M89 -58l135 646h-102l26 126h270l-187 -898h-269l26 126h101z" />
    <glyph glyph-name="asciicircum" unicode="^" horiz-adv-x="600" 
d="M115 329l251 365h156l99 -365h-140l-63 239l-163 -239h-140z" />
    <glyph glyph-name="underscore" unicode="_" horiz-adv-x="500" 
d="M-25 -125l10 50h499l-10 -50h-499z" />
    <glyph glyph-name="grave" unicode="`" horiz-adv-x="260" 
d="M216 591l-65 146h168l13 -146h-116z" />
    <glyph glyph-name="a" unicode="a" horiz-adv-x="500" 
d="M254 107q56 0 74 89l14 65h-2q-7 -9 -32 -15t-34 -10q-42 -18 -52 -70q-5 -27 3.5 -43t28.5 -16zM473 0h-174q-1 8 1 61h-2q-48 -75 -137 -75q-78 0 -106 43t-11 116q14 76 55.5 115t130.5 59l74 17q30 7 45.5 20.5t20.5 38.5q9 50 -36 50q-27 0 -42 -15t-24 -57h-156
q11 55 39 93.5t65.5 56.5t71 25t69.5 7q104 0 151 -38t27 -136l-55 -264q-19 -87 -7 -117z" />
    <glyph glyph-name="b" unicode="b" 
d="M275 270q-19 -87 -15.5 -118.5t33.5 -31.5q31 0 48 31t35 119q10 46 13.5 73t1.5 46t-10.5 25.5t-24.5 6.5q-30 0 -46.5 -31t-34.5 -120zM39 0l148 714h180l-49 -234h2q42 75 129 75q62 0 93.5 -33t31.5 -110q0 -54 -16 -130q-32 -154 -83 -225t-140 -71q-92 0 -105 88
h-2l-15 -74h-174z" />
    <glyph glyph-name="c" unicode="c" horiz-adv-x="481" 
d="M535 329h-162q12 60 6 87q-5 23 -35 23t-49 -35.5t-39 -133.5q-21 -100 -17 -134t35 -34q26 0 42.5 20t27.5 69l7 35h162q-26 -130 -86 -183q-63 -57 -177 -57q-37 0 -64.5 4.5t-53 15t-40.5 30.5t-24 50t-7.5 74t13.5 101q19 93 49.5 153.5t72.5 90t83 40t98 10.5
q114 0 147 -58t11 -168z" />
    <glyph glyph-name="d" unicode="d" 
d="M256 270q-10 -46 -13.5 -73t-1.5 -45.5t10 -25t24 -6.5q30 0 47 31t35 119q9 46 13 73.5t2 45.5t-10 25t-24 7q-32 0 -48 -30.5t-34 -120.5zM400 480l49 234h180l-148 -714h-174l15 74h-2q-51 -88 -141 -88q-89 0 -111.5 73t10.5 223q58 273 223 273q88 0 97 -75h2z" />
    <glyph glyph-name="e" unicode="e" horiz-adv-x="481" 
d="M369 338l5 24q10 43 2.5 63t-35.5 20q-27 0 -42 -19.5t-24 -63.5l-5 -24h99zM516 240h-267l-14 -71q-16 -73 33 -73q26 0 43 20.5t28 73.5h162q-22 -102 -83.5 -153t-170.5 -51q-98 0 -142.5 36t-44.5 117q0 57 16 131q31 154 98.5 219.5t190.5 65.5q112 0 152 -58.5
t11 -201.5z" />
    <glyph glyph-name="f" unicode="f" horiz-adv-x="315" 
d="M62 0l87 420h-62l25 121h62l8 39q18 82 61.5 115t136.5 33q43 0 85 -6l-24 -113q-12 3 -29 3q-44 0 -51 -38l-7 -33h73l-25 -121h-73l-87 -420h-180z" />
    <glyph glyph-name="g" unicode="g" 
d="M409 466l16 75h168l-111 -532q-38 -193 -266 -193q-46 0 -80 6.5t-60.5 23t-36.5 47t-1 75.5h162q-5 -20 5 -31t31 -11q26 0 43 13t26 54l21 103h-2q-45 -81 -138 -81q-160 0 -103 267q31 149 86 211t138 62q90 0 100 -89h2zM264 285q-16 -86 -10.5 -111t33.5 -25
q26 0 44 27.5t35 108.5q12 54 12 85t-8.5 41t-25.5 10q-27 0 -45 -28t-35 -108z" />
    <glyph glyph-name="h" unicode="h" 
d="M36 0l148 714h180l-48 -233h2q53 74 140 74q63 0 95 -34t15 -113l-84 -408h-180l74 357q7 34 0 49t-31 15t-37 -15t-20 -49l-74 -357h-180z" />
    <glyph glyph-name="i" unicode="i" horiz-adv-x="258" 
d="M159 580l28 134h180l-28 -134h-180zM39 0l112 541h180l-112 -541h-180z" />
    <glyph glyph-name="j" unicode="j" horiz-adv-x="258" 
d="M159 580l28 134h180l-28 -134h-180zM36 -12l115 553h180l-120 -576q-19 -86 -66.5 -113.5t-129.5 -27.5q-37 0 -79 5l25 121q36 0 53 7.5t22 30.5z" />
    <glyph glyph-name="k" unicode="k" horiz-adv-x="500" 
d="M31 0l148 714h180l-75 -360h2l139 187h192l-196 -223l103 -318h-192l-53 186l-40 -47l-28 -139h-180z" />
    <glyph glyph-name="l" unicode="l" horiz-adv-x="258" 
d="M39 0l148 714h180l-148 -714h-180z" />
    <glyph glyph-name="m" unicode="m" horiz-adv-x="778" 
d="M299 0l74 357q7 34 0 49t-31 15t-37 -15t-20 -49l-74 -357h-180l112 541h174l-14 -66h2q53 80 148 80q55 0 80.5 -20t34.5 -63q54 83 153 83q66 0 96.5 -33t13.5 -114l-84 -408h-180l74 357q7 34 0 49t-31 15t-37 -15t-20 -49l-74 -357h-180z" />
    <glyph glyph-name="n" unicode="n" 
d="M36 0l112 541h174l-14 -66h2q53 80 148 80q66 0 96.5 -33t13.5 -114l-84 -408h-180l74 357q7 34 0 49t-31 15t-37 -15t-20 -49l-74 -357h-180z" />
    <glyph glyph-name="o" unicode="o" horiz-adv-x="500" 
d="M256 270q-22 -102 -18.5 -135t33.5 -33q31 0 47 32.5t38 135.5q11 55 15 85t3 50.5t-9 27t-24 6.5q-30 0 -47.5 -34t-37.5 -135zM536 270q-10 -48 -21.5 -84.5t-34 -76t-52 -65t-76 -42t-105.5 -16.5q-62 0 -102 15.5t-59 39t-24 63.5t-1 76.5t15 90.5q10 48 21.5 84.5
t34 76t52 65t76 42t105.5 16.5q61 0 101 -15.5t59.5 -39t24.5 -63.5t1 -76.5t-15 -90.5z" />
    <glyph glyph-name="p" unicode="p" 
d="M275 271q-19 -88 -15.5 -119.5t33.5 -31.5q32 0 48.5 31t34.5 120q10 46 13.5 73t1.5 45.5t-10.5 25t-24.5 6.5q-30 0 -46.5 -30.5t-34.5 -119.5zM2 -176l149 717h174l-15 -74h2q49 88 141 88q88 0 111 -73t-11 -223q-30 -147 -86 -210t-136 -63q-89 0 -98 75h-2
l-49 -237h-180z" />
    <glyph glyph-name="q" unicode="q" 
d="M357 271q9 45 13 72.5t2 45.5t-10 25t-24 7q-32 0 -48 -30.5t-34 -119.5q-10 -46 -13.5 -73t-1.5 -46t10 -25.5t24 -6.5q30 0 47 31t35 120zM264 -176l49 237h-2q-39 -75 -128 -75q-54 0 -84 24.5t-39.5 85t13.5 163.5q33 155 84.5 225.5t139.5 70.5q47 0 72 -21t33 -67
h2l15 74h174l-149 -717h-180z" />
    <glyph glyph-name="r" unicode="r" horiz-adv-x="352" 
d="M31 0l112 541h174l-18 -86h2q26 48 63.5 74t78.5 26h29l-35 -168q-17 4 -44 4q-50 0 -80 -22t-41 -74l-61 -295h-180z" />
    <glyph glyph-name="s" unicode="s" horiz-adv-x="463" 
d="M51 168h158q-3 -16 -3 -30q0 -13 5 -23q10 -19 34 -19q22 0 39.5 12.5t22.5 33.5q5 26 -18.5 42t-59.5 27t-71 27.5t-54 53.5t-7 94q14 75 79.5 122t170.5 47q203 0 168 -170h-156q6 34 -2.5 47t-33.5 13q-44 0 -55 -42q-4 -21 13 -34.5t44.5 -20.5t59 -19.5t57 -28.5
t37 -50t1.5 -83q-17 -80 -85.5 -130.5t-168.5 -50.5q-111 0 -152 45.5t-23 136.5z" />
    <glyph glyph-name="t" unicode="t" horiz-adv-x="315" 
d="M89 420l25 121h60l33 159h180l-33 -159h71l-25 -121h-71l-54 -258q-5 -23 3.5 -32.5t30.5 -9.5h28l-24 -120q-53 -6 -100 -6q-87 0 -114 26t-10 112l60 288h-60z" />
    <glyph glyph-name="u" unicode="u" 
d="M63 133l85 408h180l-74 -357q-16 -64 30 -64q24 0 37 15t21 49l74 357h180l-112 -541h-174l13 66h-2q-53 -80 -147 -80q-66 0 -97 33t-14 114z" />
    <glyph glyph-name="v" unicode="v" horiz-adv-x="463" 
d="M125 0l-19 541h186l-30 -389h2l131 389h186l-244 -541h-212z" />
    <glyph glyph-name="w" unicode="w" horiz-adv-x="740" 
d="M110 0l2 541h174l-36 -389h2l134 389h192l-28 -389h2l126 389h174l-222 -541h-204l24 383h-2l-134 -383h-204z" />
    <glyph glyph-name="x" unicode="x" horiz-adv-x="481" 
d="M197 279l-83 262h180l24 -145l92 145h180l-190 -262l85 -279h-180l-30 163l-99 -163h-180z" />
    <glyph glyph-name="y" unicode="y" horiz-adv-x="463" 
d="M14 -172l26 126q16 -4 39 -4q29 0 47.5 14t21.5 27q1 4 1 17q0 16 -1 23l-37 510h186l-21 -365h2l128 365h180l-261 -559q-43 -91 -89.5 -124.5t-121.5 -33.5q-61 0 -100 4z" />
    <glyph glyph-name="z" unicode="z" horiz-adv-x="444" 
d="M106 401l29 140h402l-28 -134l-257 -267h207l-29 -140h-416l29 140l248 261h-185z" />
    <glyph glyph-name="braceleft" unicode="{" horiz-adv-x="333" 
d="M53 -47l37 178q12 67 -54 67l28 134q68 0 80 58l38 187q28 137 179 137h120l-26 -126h-56q-48 0 -59 -62l-35 -168q-18 -83 -127 -92l-1 -2q20 -2 32.5 -5t30.5 -12t24.5 -30.5t-0.5 -53.5l-33 -159q-7 -20 -1 -41t34 -21h56l-26 -126h-120q-149 0 -121 137z" />
    <glyph glyph-name="bar" unicode="|" horiz-adv-x="222" 
d="M38 -14l154 742h140l-154 -742h-140z" />
    <glyph glyph-name="braceright" unicode="}" horiz-adv-x="333" 
d="M-38 -184l26 126h55q48 0 59 62l35 168q18 83 127 92l1 2q-20 2 -32.5 5t-30.5 12t-24.5 30.5t0.5 53.5l33 159q7 20 1 41t-34 21h-56l26 126h120q149 0 121 -137l-37 -178q-5 -21 -0.5 -35.5t15 -20.5t20 -8.5t20.5 -2.5l-28 -134q-67 0 -80 -58l-39 -187
q-28 -137 -179 -137h-119z" />
    <glyph glyph-name="asciitilde" unicode="~" horiz-adv-x="600" 
d="M135 146l-10 125q56 86 143 86q40 0 107.5 -34t91.5 -34q42 0 102 71l10 -125q-73 -86 -143 -86q-38 0 -96 34t-106 34q-55 0 -99 -71z" />
    <glyph glyph-name="uni00A0" unicode="&#xa0;" horiz-adv-x="260" 
 />
    <glyph glyph-name="exclamdown" unicode="&#xa1;" horiz-adv-x="314" 
d="M34 -170l50 239l75 268h134l-35 -268l-50 -239h-174zM152 386l33 158h168l-33 -158h-168z" />
    <glyph glyph-name="cent" unicode="&#xa2;" 
d="M207 -102l19 88q-101 9 -132 73q-33 64 -4 199q33 153 93.5 218.5t160.5 78.5l16 76h80l-16 -76q69 -6 102.5 -37.5t34.5 -79t-10 -109.5h-162q12 60 6 87q-5 23 -35 23t-48.5 -35.5t-38.5 -133.5q-21 -100 -17 -134t34 -34q26 0 42.5 20t27.5 69l7 35h162
q-26 -130 -86 -183q-50 -45 -137 -57l-19 -88h-80z" />
    <glyph glyph-name="sterling" unicode="&#xa3;" 
d="M73 294l21 104h68q-29 63 -17 126q20 90 90 137t170 47q125 0 167.5 -51t23.5 -153h-162l4 16q8 37 -4.5 54.5t-37.5 17.5q-26 0 -44 -16.5t-24 -41.5q-11 -46 20 -136h171l-21 -104h-138v-16q0 -4 -2 -14q-13 -67 -121 -137l1 -2q21 7 35 7q19 0 52 -12.5t51 -12.5
q30 0 112 39l27 -112q-78 -48 -171 -48q-31 0 -89.5 18t-89.5 18q-49 0 -114 -30l-19 105q129 78 147 168q1 5 1 13v16h-107z" />
    <glyph glyph-name="currency" unicode="&#xa4;" 
d="M231 347q-11 -53 9.5 -81t68.5 -28q101 0 124 109q11 53 -9.5 81t-69.5 28q-100 0 -123 -109zM101 97l-56 77l62 51q-25 61 -10 122q12 64 64 126l-43 53l87 71l44 -51q64 36 132 36q67 0 116 -36l66 51l57 -71l-65 -53q25 -61 12 -126q-15 -67 -62 -122l42 -51l-88 -77
l-41 54q-64 -39 -135 -39t-119 39z" />
    <glyph glyph-name="yen" unicode="&#xa5;" 
d="M170 0l25 123h-125l22 104h125l9 46l-2 17h-119l21 104h75l-62 300h192l18 -260h2l126 260h192l-188 -300h75l-21 -104h-119l-10 -17l-9 -46h125l-22 -104h-125l-25 -123h-180z" />
    <glyph glyph-name="brokenbar" unicode="&#xa6;" horiz-adv-x="222" 
d="M132 438l60 290h140l-60 -290h-140zM38 -14l60 290h140l-60 -290h-140z" />
    <glyph glyph-name="section" unicode="&#xa7;" 
d="M255 270l106 -54q30 19 42 33.5t15 33.5q6 26 -17.5 43.5t-63 32t-52.5 25.5q-54 -39 -60 -68q-6 -27 30 -46zM587 552h-156q11 60 -40 60q-20 0 -36 -11.5t-20 -29.5q-4 -21 13.5 -36.5t47 -24.5t63 -25t61 -35t41 -57t2.5 -89q-19 -89 -102 -144q47 -43 27 -135
q-19 -93 -90 -136t-175 -43q-216 0 -181 182l4 16h168q-18 -82 33 -82q46 0 59 56q6 27 -10.5 46.5t-46.5 29.5t-63.5 25t-61.5 33t-41 55t-2 88q8 42 41 84t72 60q-25 19 -34 51.5t-2 64.5q18 81 82 127t172 46q106 0 151 -38.5t28 -118.5z" />
    <glyph glyph-name="dieresis" unicode="&#xa8;" horiz-adv-x="260" 
d="M273 593l29 140h134l-29 -140h-134zM91 593l29 140h134l-29 -140h-134z" />
    <glyph glyph-name="copyright" unicode="&#xa9;" horiz-adv-x="800" 
d="M231 357q-27 -127 22.5 -194t165.5 -67t193.5 67t104.5 194q26 127 -23.5 194t-165.5 67q-115 0 -193.5 -67.5t-103.5 -193.5zM103 357q32 154 163 262.5t285 108.5t240 -108.5t54 -262.5t-163.5 -262.5t-284.5 -108.5q-154 0 -240 108.5t-54 262.5zM543 299h110
q-27 -73 -84.5 -113.5t-122.5 -40.5q-90 0 -134 58.5t-26 148.5q18 92 86.5 154t155.5 62q69 0 108 -38.5t35 -111.5h-104q-1 58 -59 58q-44 0 -75 -31.5t-42 -86.5t7.5 -88t63.5 -33q59 0 81 62z" />
    <glyph glyph-name="ordfeminine" unicode="&#xaa;" horiz-adv-x="352" 
d="M308 507l7 32h-2q-4 -5 -10 -7t-16 -4t-17 -5q-26 -11 -32 -42q-2 -12 3.5 -20t19.5 -8q20 0 30.5 13t16.5 41zM265 604h-116q9 44 36.5 69.5t59 33t76.5 7.5q93 0 120.5 -23t15.5 -81l-33 -159q-11 -49 -3 -71h-131q-2 12 -2 18q0 13 1 20h-2q-13 -22 -36 -33
q-24 -12 -51 -12q-115 0 -93 95q8 45 36.5 66.5t97.5 37.5l49 11q20 5 29 12.5t12 22.5q2 9 -4.5 15.5t-20.5 6.5q-32 0 -41 -36z" />
    <glyph glyph-name="guillemotleft" unicode="&#xab;" horiz-adv-x="444" 
d="M86 179l45 220l178 104l-33 -158l-95 -56l72 -56l-33 -158zM276 179l45 220l178 104l-33 -158l-95 -56l72 -56l-33 -158z" />
    <glyph glyph-name="logicalnot" unicode="&#xac;" horiz-adv-x="600" 
d="M435 109l39 186h-366l29 140h506l-68 -326h-140z" />
    <glyph glyph-name="uni00AD" unicode="&#xad;" horiz-adv-x="368" 
d="M72 213l31 152h312l-31 -152h-312z" />
    <glyph glyph-name="registered" unicode="&#xae;" horiz-adv-x="800" 
d="M433 398h49q56 0 67 45q4 21 -8.5 31.5t-40.5 10.5h-49zM296 181l79 378h125q85 0 121.5 -27.5t23.5 -95.5q-11 -49 -39 -74t-57 -28l53 -153h-102l-50 143h-32l-30 -143h-92zM231 357q-27 -127 22.5 -194t165.5 -67t193.5 67t104.5 194q26 127 -23.5 194t-165.5 67
q-115 0 -193.5 -67.5t-103.5 -193.5zM103 357q32 154 163 262.5t285 108.5t240 -108.5t54 -262.5t-163.5 -262.5t-284.5 -108.5q-154 0 -240 108.5t-54 262.5z" />
    <glyph glyph-name="macron" unicode="&#xaf;" horiz-adv-x="260" 
d="M97 614l20 98h316l-20 -98h-316z" />
    <glyph glyph-name="degree" unicode="&#xb0;" horiz-adv-x="400" 
d="M245 548q-5 -29 10 -48.5t44 -19.5t53 19.5t29 48.5q6 29 -9 48.5t-44 19.5t-53 -19.5t-30 -48.5zM153 548q14 66 71 113t123 47t103 -47t23 -113t-70.5 -113t-122.5 -47t-103.5 47t-23.5 113z" />
    <glyph glyph-name="plusminus" unicode="&#xb1;" horiz-adv-x="600" 
d="M47 0l29 140h506l-29 -140h-506zM316 418l19 88h140l-19 -88h183l-29 -140h-183l-18 -88h-140l18 88h-183l29 140h183z" />
    <glyph glyph-name="twosuperior" unicode="&#xb2;" horiz-adv-x="370" 
d="M262 556h-128q17 81 51 112q41 40 145 40q97 0 126 -30.5t17 -86.5q-15 -65 -82 -118l-85 -65q-31 -26 -37 -36h159l-19 -92h-322q19 97 103 164l96 76q39 32 47 70q10 38 -24 38q-31 0 -44 -58z" />
    <glyph glyph-name="threesuperior" unicode="&#xb3;" horiz-adv-x="370" 
d="M267 582h-122q12 63 57 96q44 30 127 30q93 0 121 -28.5t15 -89.5q-6 -30 -26.5 -54t-55.5 -32v-2q72 -11 56 -92q-15 -72 -62 -104.5t-136 -32.5q-91 0 -123.5 29.5t-17.5 104.5h128q-4 -15 2 -38q6 -16 24 -16q21 0 29.5 11t14.5 44q7 31 -1 42t-32 11h-31l16 74h18
q28 0 42 11.5t22 45.5q8 36 -23 36q-33 0 -42 -46z" />
    <glyph glyph-name="acute" unicode="&#xb4;" horiz-adv-x="260" 
d="M176 591l75 146h168l-127 -146h-116z" />
    <glyph glyph-name="mu" unicode="&#xb5;" 
d="M0 -176l148 717h180l-74 -357q-16 -64 30 -64q24 0 37 15t21 49l74 357h180l-112 -541h-174l13 66h-2q-51 -80 -93 -80q-9 0 -15 3l-34 -165h-179z" />
    <glyph glyph-name="paragraph" unicode="&#xb6;" horiz-adv-x="666" 
d="M176 -140l98 470q-69 0 -111 50.5t-23 138.5q13 58 41 97.5t69.5 60t85.5 29t101 8.5h292l-178 -854h-140l155 744h-95l-155 -744h-140z" />
    <glyph glyph-name="periodcentered" unicode="&#xb7;" horiz-adv-x="260" 
d="M87 274q8 42 43.5 70.5t76.5 28.5q42 0 64.5 -28.5t13.5 -70.5q-8 -42 -43 -70.5t-76 -28.5q-42 0 -64.5 28.5t-14.5 70.5z" />
    <glyph glyph-name="cedilla" unicode="&#xb8;" horiz-adv-x="260" 
d="M111 0h60l-44 -60q15 5 30 5q39 0 61 -20t14 -59q-9 -49 -49 -74t-101 -25q-64 0 -109 20l32 56q31 -16 65 -16q23 0 38.5 9.5t18.5 24.5q3 17 -7.5 24.5t-26.5 7.5t-31 -7l-20 21z" />
    <glyph glyph-name="onesuperior" unicode="&#xb9;" horiz-adv-x="333" 
d="M167 280l58 282h-87l17 80q55 0 85 14.5t52 51.5h104l-89 -428h-140z" />
    <glyph glyph-name="ordmasculine" unicode="&#xba;" horiz-adv-x="352" 
d="M256 543q-11 -53 -8 -71.5t22 -18.5t29 18t21 72q6 29 8 45t1 27t-6.5 15t-15.5 4q-19 0 -29.5 -18.5t-21.5 -72.5zM122 543q21 95 63.5 133t138.5 38t123.5 -38t6.5 -133q-18 -95 -61.5 -132.5t-139.5 -37.5t-122.5 37.5t-8.5 132.5z" />
    <glyph glyph-name="guillemotright" unicode="&#xbb;" horiz-adv-x="444" 
d="M254 75l33 158l96 56l-73 56l33 158l134 -104l-45 -220zM64 75l33 158l96 56l-73 56l33 158l134 -104l-45 -220z" />
    <glyph glyph-name="onequarter" unicode="&#xbc;" horiz-adv-x="814" 
d="M155 280l58 282h-87l17 80q55 0 85 14.5t52 51.5h104l-89 -428h-140zM139 -31l544 756h110l-544 -756h-110zM470 72l20 92l199 257h157l-53 -257h40l-20 -92h-40l-14 -72h-122l14 72h-181zM594 164h77l27 131h-2z" />
    <glyph glyph-name="onehalf" unicode="&#xbd;" horiz-adv-x="814" 
d="M656 276h-128q17 81 51 112q41 40 144 40q98 0 127 -30.5t17 -86.5q-15 -65 -82 -118l-85 -65q-32 -27 -37 -36h159l-19 -92h-322q19 97 103 164l95 76q40 31 48 70q8 38 -24 38q-31 0 -44 -58zM155 280l58 282h-87l17 80q55 0 85 14.5t52 51.5h104l-89 -428h-140z
M105 -31l544 756h110l-544 -756h-110z" />
    <glyph glyph-name="threequarters" unicode="&#xbe;" horiz-adv-x="814" 
d="M266 582h-122q12 63 57 96q44 30 127 30q93 0 121 -28.5t15 -89.5q-6 -30 -26.5 -54t-55.5 -32v-2q72 -11 56 -92q-15 -72 -62 -104.5t-136 -32.5q-91 0 -123.5 29.5t-17.5 104.5h128q-4 -15 2 -38q6 -16 24 -16q21 0 29.5 11t14.5 44q7 31 -1 42t-32 11h-31l16 74h18
q28 0 42 11.5t22 45.5q7 36 -23 36q-33 0 -42 -46zM176 -31l544 756h110l-544 -756h-110zM470 72l20 92l199 257h157l-53 -257h40l-20 -92h-40l-14 -72h-122l14 72h-181zM582 164h77l27 131h-2z" />
    <glyph glyph-name="questiondown" unicode="&#xbf;" horiz-adv-x="500" 
d="M252 386l33 158h168l-33 -158h-168zM311 56h168q-28 -130 -96 -186q-62 -54 -178 -54q-106 0 -148 52.5t-23 145.5q20 90 77 142l90 83q29 27 44 98h162l-6 -28q-22 -106 -76 -157l-73 -67q-36 -33 -47 -88q-13 -65 31 -65q26 0 43 24.5t32 99.5z" />
    <glyph glyph-name="Agrave" unicode="&#xc0;" horiz-adv-x="556" 
d="M385 265l12 303h-2l-114 -303h104zM-13 0l322 714h234l26 -714h-198l6 125h-148l-44 -125h-198zM395 765l-65 146h168l13 -146h-116z" />
    <glyph glyph-name="Aacute" unicode="&#xc1;" horiz-adv-x="556" 
d="M385 265l12 303h-2l-114 -303h104zM-13 0l322 714h234l26 -714h-198l6 125h-148l-44 -125h-198zM355 765l75 146h168l-127 -146h-116z" />
    <glyph glyph-name="Acircumflex" unicode="&#xc2;" horiz-adv-x="556" 
d="M385 265l12 303h-2l-114 -303h104zM-13 0l322 714h234l26 -714h-198l6 125h-148l-44 -125h-198zM269 765l93 146h192l31 -146h-122l-19 80l-53 -80h-122z" />
    <glyph glyph-name="Atilde" unicode="&#xc3;" horiz-adv-x="556" 
d="M385 265l12 303h-2l-114 -303h104zM-13 0l322 714h234l26 -714h-198l6 125h-148l-44 -125h-198zM515 908h86q-22 -71 -56 -105.5t-73 -34.5q-30 0 -67 15t-48 15q-24 0 -29 -30h-86q47 140 127 140q25 0 62 -15q41 -15 50 -15q24 0 34 30z" />
    <glyph glyph-name="Adieresis" unicode="&#xc4;" horiz-adv-x="556" 
d="M385 265l12 303h-2l-114 -303h104zM-13 0l322 714h234l26 -714h-198l6 125h-148l-44 -125h-198zM459 767l29 140h134l-29 -140h-134zM277 767l29 140h134l-29 -140h-134z" />
    <glyph glyph-name="Aring" unicode="&#xc5;" horiz-adv-x="556" 
d="M385 265l12 303h-2l-114 -303h104zM-13 0l322 714h234l26 -714h-198l6 125h-148l-44 -125h-198zM398 844q-5 -20 5.5 -33t29.5 -13t34.5 13t20.5 33q4 19 -6.5 32t-29.5 13t-34.5 -13t-19.5 -32zM329 844q8 47 48 78t89 31q48 0 73.5 -31t17.5 -78q-10 -48 -47 -78.5
t-90 -30.5q-49 0 -75 31t-16 78z" />
    <glyph glyph-name="AE" unicode="&#xc6;" horiz-adv-x="778" 
d="M-13 0l418 714h494l-32 -152h-212l-25 -122h196l-30 -146h-196l-30 -142h223l-31 -152h-397l24 119h-144l-60 -119h-198zM319 265h101l67 323h-2z" />
    <glyph glyph-name="Ccedilla" unicode="&#xc7;" horiz-adv-x="537" 
d="M424 457l8 40q12 61 5.5 83t-34.5 22q-41 0 -62 -47t-52 -198q-11 -53 -17 -85.5t-10 -63t-3.5 -46.5t5 -28.5t13.5 -17t24 -4.5q34 0 52 35.5t40 139.5h180l-11 -53q-41 -201 -198 -237q-36 -9 -64 -10l-34 -47q15 5 30 5q39 0 61 -20t14 -59q-9 -49 -49 -74t-101 -25
q-64 0 -109 20l32 56q31 -16 65 -16q23 0 38.5 9.5t18.5 24.5q3 17 -7.5 24.5t-26.5 7.5t-31 -7l-20 21l59 80q-56 5 -89 19q-66 31 -77 116.5t23 234.5q42 206 115.5 288.5t216.5 82.5q231 0 184 -226l-9 -45h-180z" />
    <glyph glyph-name="Egrave" unicode="&#xc8;" horiz-adv-x="500" 
d="M44 0l148 714h423l-32 -152h-237l-25 -122h222l-30 -146h-222l-30 -142h246l-31 -152h-432zM390 765l-65 146h168l13 -146h-116z" />
    <glyph glyph-name="Eacute" unicode="&#xc9;" horiz-adv-x="500" 
d="M44 0l148 714h423l-32 -152h-237l-25 -122h222l-30 -146h-222l-30 -142h246l-31 -152h-432zM340 765l75 146h168l-127 -146h-116z" />
    <glyph glyph-name="Ecircumflex" unicode="&#xca;" horiz-adv-x="500" 
d="M44 0l148 714h423l-32 -152h-237l-25 -122h222l-30 -146h-222l-30 -142h246l-31 -152h-432zM246 765l93 146h192l31 -146h-122l-19 80l-53 -80h-122z" />
    <glyph glyph-name="Edieresis" unicode="&#xcb;" horiz-adv-x="500" 
d="M44 0l148 714h423l-32 -152h-237l-25 -122h222l-30 -146h-222l-30 -142h246l-31 -152h-432zM429 767l29 140h134l-29 -140h-134zM247 767l29 140h134l-29 -140h-134z" />
    <glyph glyph-name="Igrave" unicode="&#xcc;" horiz-adv-x="260" 
d="M37 0l148 714h186l-148 -714h-186zM256 765l-65 146h168l13 -146h-116z" />
    <glyph glyph-name="Iacute" unicode="&#xcd;" horiz-adv-x="260" 
d="M37 0l148 714h186l-148 -714h-186zM195 765l75 146h168l-127 -146h-116z" />
    <glyph glyph-name="Icircumflex" unicode="&#xce;" horiz-adv-x="260" 
d="M37 0l148 714h186l-148 -714h-186zM127 765l93 146h192l31 -146h-122l-19 80l-53 -80h-122z" />
    <glyph glyph-name="Idieresis" unicode="&#xcf;" horiz-adv-x="260" 
d="M37 0l148 714h186l-148 -714h-186zM308 767l29 140h134l-29 -140h-134zM126 767l29 140h134l-29 -140h-134z" />
    <glyph glyph-name="Eth" unicode="&#xd0;" horiz-adv-x="574" 
d="M320 434h52l-26 -126h-52l-37 -174h37q37 0 57 16.5t35 61t36 145.5q11 52 16.5 84t8 59.5t0.5 41t-10 23t-19.5 12.5t-30.5 3h-37zM44 0l64 308h-53l26 126h53l58 280h270q45 0 78 -10.5t53 -27t31 -44.5t14.5 -55.5t0 -67.5t-9 -73t-15.5 -79q-9 -42 -15.5 -69.5
t-17.5 -64.5t-22.5 -61.5t-28 -52.5t-37 -45.5t-46.5 -33.5t-59.5 -23t-73.5 -7h-270z" />
    <glyph glyph-name="Ntilde" unicode="&#xd1;" horiz-adv-x="592" 
d="M44 0l148 714h208l28 -440h2l92 440h174l-148 -714h-204l-33 441h-2l-91 -441h-174zM557 908h86q-22 -71 -56 -105.5t-73 -34.5q-30 0 -67 15t-48 15q-24 0 -29 -30h-86q47 140 127 140q25 0 62 -15q41 -15 50 -15q24 0 34 30z" />
    <glyph glyph-name="Ograve" unicode="&#xd2;" horiz-adv-x="556" 
d="M289 357q-11 -53 -17 -85.5t-10 -63t-3.5 -46.5t5 -28.5t13.5 -17t24 -4.5q41 0 62 47t52 198q11 53 17 85.5t10 63t3.5 46.5t-5 28.5t-13.5 17t-24 4.5q-41 0 -62 -47t-52 -198zM97 357q42 202 116.5 286.5t215.5 84.5t181 -85.5t-3 -285.5q-42 -202 -116.5 -286.5
t-215.5 -84.5t-181 85.5t3 285.5zM393 765l-65 146h168l13 -146h-116z" />
    <glyph glyph-name="Oacute" unicode="&#xd3;" horiz-adv-x="556" 
d="M289 357q-11 -53 -17 -85.5t-10 -63t-3.5 -46.5t5 -28.5t13.5 -17t24 -4.5q41 0 62 47t52 198q11 53 17 85.5t10 63t3.5 46.5t-5 28.5t-13.5 17t-24 4.5q-41 0 -62 -47t-52 -198zM97 357q42 202 116.5 286.5t215.5 84.5t181 -85.5t-3 -285.5q-42 -202 -116.5 -286.5
t-215.5 -84.5t-181 85.5t3 285.5zM375 765l75 146h168l-127 -146h-116z" />
    <glyph glyph-name="Ocircumflex" unicode="&#xd4;" horiz-adv-x="556" 
d="M289 357q-11 -53 -17 -85.5t-10 -63t-3.5 -46.5t5 -28.5t13.5 -17t24 -4.5q41 0 62 47t52 198q11 53 17 85.5t10 63t3.5 46.5t-5 28.5t-13.5 17t-24 4.5q-41 0 -62 -47t-52 -198zM97 357q42 202 116.5 286.5t215.5 84.5t181 -85.5t-3 -285.5q-42 -202 -116.5 -286.5
t-215.5 -84.5t-181 85.5t3 285.5zM280 765l93 146h192l31 -146h-122l-19 80l-53 -80h-122z" />
    <glyph glyph-name="Otilde" unicode="&#xd5;" horiz-adv-x="556" 
d="M289 357q-11 -53 -17 -85.5t-10 -63t-3.5 -46.5t5 -28.5t13.5 -17t24 -4.5q41 0 62 47t52 198q11 53 17 85.5t10 63t3.5 46.5t-5 28.5t-13.5 17t-24 4.5q-41 0 -62 -47t-52 -198zM97 357q42 202 116.5 286.5t215.5 84.5t181 -85.5t-3 -285.5q-42 -202 -116.5 -286.5
t-215.5 -84.5t-181 85.5t3 285.5zM532 908h86q-22 -71 -56 -105.5t-73 -34.5q-30 0 -67 15t-48 15q-24 0 -29 -30h-86q47 140 127 140q24 0 62 -15q41 -15 50 -15q24 0 34 30z" />
    <glyph glyph-name="Odieresis" unicode="&#xd6;" horiz-adv-x="556" 
d="M289 357q-11 -53 -17 -85.5t-10 -63t-3.5 -46.5t5 -28.5t13.5 -17t24 -4.5q41 0 62 47t52 198q11 53 17 85.5t10 63t3.5 46.5t-5 28.5t-13.5 17t-24 4.5q-41 0 -62 -47t-52 -198zM97 357q42 202 116.5 286.5t215.5 84.5t181 -85.5t-3 -285.5q-42 -202 -116.5 -286.5
t-215.5 -84.5t-181 85.5t3 285.5zM456 767l29 140h134l-29 -140h-134zM274 767l29 140h134l-29 -140h-134z" />
    <glyph glyph-name="multiply" unicode="&#xd7;" horiz-adv-x="600" 
d="M253 253l-113 143l119 99l114 -143l172 143l79 -99l-173 -143l113 -143l-119 -99l-113 143l-173 -143l-79 99z" />
    <glyph glyph-name="Oslash" unicode="&#xd8;" horiz-adv-x="556" 
d="M80 -33l41 68q-41 39 -46 118.5t22 203.5q42 202 116.5 286.5t215.5 84.5q57 0 101 -14l35 58l59 -25l-40 -66q40 -40 45 -119.5t-22 -204.5q-42 -202 -116.5 -286.5t-215.5 -84.5q-57 0 -101 14l-36 -58zM426 421l-165 -275q5 -34 40 -34q41 0 62 47t52 198l13 64h-2z
M277 293l166 276q-5 33 -40 33q-41 0 -62 -47t-52 -198l-14 -64h2z" />
    <glyph glyph-name="Ugrave" unicode="&#xd9;" horiz-adv-x="556" 
d="M184 714h186l-107 -515q-5 -28 -5 -43q0 -44 43 -44q28 0 45.5 19t28.5 68l107 515h186l-97 -468q-31 -144 -102 -202t-194 -58t-171 58t-17 202zM387 765l-65 146h168l13 -146h-116z" />
    <glyph glyph-name="Uacute" unicode="&#xda;" horiz-adv-x="556" 
d="M184 714h186l-107 -515q-5 -28 -5 -43q0 -44 43 -44q28 0 45.5 19t28.5 68l107 515h186l-97 -468q-31 -144 -102 -202t-194 -58t-171 58t-17 202zM377 765l75 146h168l-127 -146h-116z" />
    <glyph glyph-name="Ucircumflex" unicode="&#xdb;" horiz-adv-x="556" 
d="M184 714h186l-107 -515q-5 -28 -5 -43q0 -44 43 -44q28 0 45.5 19t28.5 68l107 515h186l-97 -468q-31 -144 -102 -202t-194 -58t-171 58t-17 202zM275 765l93 146h192l31 -146h-122l-19 80l-53 -80h-122z" />
    <glyph glyph-name="Udieresis" unicode="&#xdc;" horiz-adv-x="556" 
d="M184 714h186l-107 -515q-5 -28 -5 -43q0 -44 43 -44q28 0 45.5 19t28.5 68l107 515h186l-97 -468q-31 -144 -102 -202t-194 -58t-171 58t-17 202zM457 767l29 140h134l-29 -140h-134zM275 767l29 140h134l-29 -140h-134z" />
    <glyph glyph-name="Yacute" unicode="&#xdd;" 
d="M167 0l58 281l-92 433h204l18 -249h2l122 249h204l-272 -433l-58 -281h-186zM362 765l75 146h168l-127 -146h-116z" />
    <glyph glyph-name="Thorn" unicode="&#xde;" horiz-adv-x="537" 
d="M318 460l-36 -174h35q73 0 90 87q18 87 -54 87h-35zM37 0l148 714h186l-25 -120h93q102 0 141.5 -61t18.5 -159q-47 -222 -280 -222h-65l-31 -152h-186z" />
    <glyph glyph-name="germandbls" unicode="&#xdf;" 
d="M205 0h-174l106 510q23 119 91.5 168.5t190.5 49.5q218 0 179 -188q-11 -52 -43 -91t-78 -45v-2q103 -16 68 -181q-26 -123 -78.5 -175t-154.5 -52q-42 0 -70 6l25 121q14 -6 23 -6q30 0 47 25t32 97q11 54 2.5 75.5t-38.5 21.5h-20l25 121h15q48 0 62 72q17 80 -35 80
q-49 0 -65 -74z" />
    <glyph glyph-name="agrave" unicode="&#xe0;" horiz-adv-x="500" 
d="M254 107q56 0 74 89l14 65h-2q-7 -9 -32 -15t-34 -10q-42 -18 -52 -70q-5 -27 3.5 -43t28.5 -16zM473 0h-174q-1 8 1 61h-2q-48 -75 -137 -75q-78 0 -106 43t-11 116q14 76 55.5 115t130.5 59l74 17q30 7 45.5 20.5t20.5 38.5q9 50 -36 50q-27 0 -42 -15t-24 -57h-156
q11 55 39 93.5t65.5 56.5t71 25t69.5 7q104 0 151 -38t27 -136l-55 -264q-19 -87 -7 -117zM356 591l-65 146h168l13 -146h-116z" />
    <glyph glyph-name="aacute" unicode="&#xe1;" horiz-adv-x="500" 
d="M254 107q56 0 74 89l14 65h-2q-7 -9 -32 -15t-34 -10q-42 -18 -52 -70q-5 -27 3.5 -43t28.5 -16zM473 0h-174q-1 8 1 61h-2q-48 -75 -137 -75q-78 0 -106 43t-11 116q14 76 55.5 115t130.5 59l74 17q30 7 45.5 20.5t20.5 38.5q9 50 -36 50q-27 0 -42 -15t-24 -57h-156
q11 55 39 93.5t65.5 56.5t71 25t69.5 7q104 0 151 -38t27 -136l-55 -264q-19 -87 -7 -117zM310 591l75 146h168l-127 -146h-116z" />
    <glyph glyph-name="acircumflex" unicode="&#xe2;" horiz-adv-x="500" 
d="M254 107q56 0 74 89l14 65h-2q-7 -9 -32 -15t-34 -10q-42 -18 -52 -70q-5 -27 3.5 -43t28.5 -16zM473 0h-174q-1 8 1 61h-2q-48 -75 -137 -75q-78 0 -106 43t-11 116q14 76 55.5 115t130.5 59l74 17q30 7 45.5 20.5t20.5 38.5q9 50 -36 50q-27 0 -42 -15t-24 -57h-156
q11 55 39 93.5t65.5 56.5t71 25t69.5 7q104 0 151 -38t27 -136l-55 -264q-19 -87 -7 -117zM213 591l93 146h192l31 -146h-122l-19 80l-53 -80h-122z" />
    <glyph glyph-name="atilde" unicode="&#xe3;" horiz-adv-x="500" 
d="M254 107q56 0 74 89l14 65h-2q-7 -9 -32 -15t-34 -10q-42 -18 -52 -70q-5 -27 3.5 -43t28.5 -16zM473 0h-174q-1 8 1 61h-2q-48 -75 -137 -75q-78 0 -106 43t-11 116q14 76 55.5 115t130.5 59l74 17q30 7 45.5 20.5t20.5 38.5q9 50 -36 50q-27 0 -42 -15t-24 -57h-156
q11 55 39 93.5t65.5 56.5t71 25t69.5 7q104 0 151 -38t27 -136l-55 -264q-19 -87 -7 -117zM471 734h86q-22 -71 -56 -105.5t-73 -34.5q-30 0 -67 15t-48 15q-24 0 -29 -30h-86q47 140 127 140q25 0 62 -15q41 -15 50 -15q24 0 34 30z" />
    <glyph glyph-name="adieresis" unicode="&#xe4;" horiz-adv-x="500" 
d="M254 107q56 0 74 89l14 65h-2q-7 -9 -32 -15t-34 -10q-42 -18 -52 -70q-5 -27 3.5 -43t28.5 -16zM473 0h-174q-1 8 1 61h-2q-48 -75 -137 -75q-78 0 -106 43t-11 116q14 76 55.5 115t130.5 59l74 17q30 7 45.5 20.5t20.5 38.5q9 50 -36 50q-27 0 -42 -15t-24 -57h-156
q11 55 39 93.5t65.5 56.5t71 25t69.5 7q104 0 151 -38t27 -136l-55 -264q-19 -87 -7 -117zM388 593l29 140h134l-29 -140h-134zM206 593l29 140h134l-29 -140h-134z" />
    <glyph glyph-name="aring" unicode="&#xe5;" horiz-adv-x="500" 
d="M254 107q56 0 74 89l14 65h-2q-7 -9 -32 -15t-34 -10q-42 -18 -52 -70q-5 -27 3.5 -43t28.5 -16zM473 0h-174q-1 8 1 61h-2q-48 -75 -137 -75q-78 0 -106 43t-11 116q14 76 55.5 115t130.5 59l74 17q30 7 45.5 20.5t20.5 38.5q9 50 -36 50q-27 0 -42 -15t-24 -57h-156
q11 55 39 93.5t65.5 56.5t71 25t69.5 7q104 0 151 -38t27 -136l-55 -264q-19 -87 -7 -117zM336 690q-5 -20 5.5 -33t29.5 -13t34.5 13t20.5 33q4 19 -6.5 32t-29.5 13t-34.5 -13t-19.5 -32zM267 690q8 47 48 78t89 31q48 0 73.5 -31t17.5 -78q-10 -48 -47 -78.5t-90 -30.5
q-49 0 -75 31t-16 78z" />
    <glyph glyph-name="ae" unicode="&#xe6;" horiz-adv-x="740" 
d="M333 196l14 65h-2q-5 -7 -15 -10t-24.5 -6.5t-25.5 -8.5q-42 -18 -52 -70q-5 -27 3.5 -43t28.5 -16q55 0 73 89zM274 373h-156q11 56 36.5 94t61 56t70 25t77.5 7q38 0 73 -15.5t54 -44.5q30 32 65.5 46t88.5 14q105 0 139 -58t5 -202l-12 -55h-266l-14 -71
q-16 -73 32 -73q26 0 42 20.5t28 73.5h162q-24 -102 -81 -151q-65 -53 -160 -53q-84 0 -120 21.5t-49 70.5q-37 -52 -80 -72t-103 -20q-78 0 -106 43t-11 116q14 76 55.5 115t130.5 59l74 17q55 12 65 59q9 50 -35 50q-27 0 -42 -15t-24 -57zM629 338l5 24q10 43 2.5 63
t-35.5 20q-26 0 -41 -19.5t-24 -63.5l-5 -24h98z" />
    <glyph glyph-name="ccedilla" unicode="&#xe7;" horiz-adv-x="481" 
d="M535 329h-162q12 60 6 87q-5 23 -35 23t-49 -35.5t-39 -133.5q-21 -100 -17 -134t35 -34q26 0 42.5 20t27.5 69l7 35h162q-26 -130 -86 -183q-58 -52 -155 -56l-34 -47q15 5 30 5q39 0 61 -20t14 -59q-9 -49 -49 -74t-101 -25q-64 0 -109 20l32 56q31 -16 65 -16
q23 0 38.5 9.5t18.5 24.5q3 17 -7.5 24.5t-26.5 7.5t-31 -7l-20 21l59 81q-27 1 -55 8q-132 33 -83 265q19 93 49.5 153.5t72.5 90t83 40t98 10.5q114 0 147 -58t11 -168z" />
    <glyph glyph-name="egrave" unicode="&#xe8;" horiz-adv-x="481" 
d="M369 338l5 24q10 43 2.5 63t-35.5 20q-27 0 -42 -19.5t-24 -63.5l-5 -24h99zM516 240h-267l-14 -71q-16 -73 33 -73q26 0 43 20.5t28 73.5h162q-22 -102 -83.5 -153t-170.5 -51q-98 0 -142.5 36t-44.5 117q0 57 16 131q31 154 98.5 219.5t190.5 65.5q112 0 152 -58.5
t11 -201.5zM321 591l-65 146h168l13 -146h-116z" />
    <glyph glyph-name="eacute" unicode="&#xe9;" horiz-adv-x="481" 
d="M369 338l5 24q10 43 2.5 63t-35.5 20q-27 0 -42 -19.5t-24 -63.5l-5 -24h99zM516 240h-267l-14 -71q-16 -73 33 -73q26 0 43 20.5t28 73.5h162q-22 -102 -83.5 -153t-170.5 -51q-98 0 -142.5 36t-44.5 117q0 57 16 131q31 154 98.5 219.5t190.5 65.5q112 0 152 -58.5
t11 -201.5zM304 591l75 146h168l-127 -146h-116z" />
    <glyph glyph-name="ecircumflex" unicode="&#xea;" horiz-adv-x="481" 
d="M369 338l5 24q10 43 2.5 63t-35.5 20q-27 0 -42 -19.5t-24 -63.5l-5 -24h99zM516 240h-267l-14 -71q-16 -73 33 -73q26 0 43 20.5t28 73.5h162q-22 -102 -83.5 -153t-170.5 -51q-98 0 -142.5 36t-44.5 117q0 57 16 131q31 154 98.5 219.5t190.5 65.5q112 0 152 -58.5
t11 -201.5zM214 591l93 146h192l31 -146h-122l-19 80l-53 -80h-122z" />
    <glyph glyph-name="edieresis" unicode="&#xeb;" horiz-adv-x="481" 
d="M369 338l5 24q10 43 2.5 63t-35.5 20q-27 0 -42 -19.5t-24 -63.5l-5 -24h99zM516 240h-267l-14 -71q-16 -73 33 -73q26 0 43 20.5t28 73.5h162q-22 -102 -83.5 -153t-170.5 -51q-98 0 -142.5 36t-44.5 117q0 57 16 131q31 154 98.5 219.5t190.5 65.5q112 0 152 -58.5
t11 -201.5zM388 593l29 140h134l-29 -140h-134zM206 593l29 140h134l-29 -140h-134z" />
    <glyph glyph-name="igrave" unicode="&#xec;" horiz-adv-x="258" 
d="M39 0l112 541h180l-112 -541h-180zM219 591l-65 146h168l13 -146h-116z" />
    <glyph glyph-name="iacute" unicode="&#xed;" horiz-adv-x="258" 
d="M39 0l112 541h180l-112 -541h-180zM161 591l75 146h168l-127 -146h-116z" />
    <glyph glyph-name="icircumflex" unicode="&#xee;" horiz-adv-x="258" 
d="M39 0l112 541h180l-112 -541h-180zM92 591l93 146h192l31 -146h-122l-19 80l-53 -80h-122z" />
    <glyph glyph-name="idieresis" unicode="&#xef;" horiz-adv-x="258" 
d="M39 0l112 541h180l-112 -541h-180zM270 593l29 140h134l-29 -140h-134zM88 593l29 140h134l-29 -140h-134z" />
    <glyph glyph-name="eth" unicode="&#xf0;" horiz-adv-x="500" 
d="M196 633l79 38q-19 24 -40 47l126 82q39 -37 56 -60l89 43l30 -69l-72 -35q120 -178 75 -393q-12 -56 -24.5 -96t-35 -81t-52 -66t-75.5 -41t-105 -16q-128 0 -166 62t-8 210q30 147 91 209.5t136 62.5q44 0 76 -25l3 2q-12 35 -58 102l-93 -45zM256 270
q-22 -102 -18.5 -135t33.5 -33q31 0 47 32.5t38 135.5q18 83 14 113.5t-34 30.5t-46 -29.5t-34 -114.5z" />
    <glyph glyph-name="ntilde" unicode="&#xf1;" 
d="M36 0l112 541h174l-14 -66h2q53 80 148 80q66 0 96.5 -33t13.5 -114l-84 -408h-180l74 357q7 34 0 49t-31 15t-37 -15t-20 -49l-74 -357h-180zM469 734h86q-22 -71 -56 -105.5t-73 -34.5q-30 0 -67 15t-48 15q-24 0 -29 -30h-86q47 140 127 140q25 0 62 -15
q41 -15 50 -15q24 0 34 30z" />
    <glyph glyph-name="ograve" unicode="&#xf2;" horiz-adv-x="500" 
d="M256 270q-22 -102 -18.5 -135t33.5 -33q31 0 47 32.5t38 135.5q11 55 15 85t3 50.5t-9 27t-24 6.5q-30 0 -47.5 -34t-37.5 -135zM536 270q-10 -48 -21.5 -84.5t-34 -76t-52 -65t-76 -42t-105.5 -16.5q-62 0 -102 15.5t-59 39t-24 63.5t-1 76.5t15 90.5q10 48 21.5 84.5
t34 76t52 65t76 42t105.5 16.5q61 0 101 -15.5t59.5 -39t24.5 -63.5t1 -76.5t-15 -90.5zM314 591l-65 146h168l13 -146h-116z" />
    <glyph glyph-name="oacute" unicode="&#xf3;" horiz-adv-x="500" 
d="M256 270q-22 -102 -18.5 -135t33.5 -33q31 0 47 32.5t38 135.5q11 55 15 85t3 50.5t-9 27t-24 6.5q-30 0 -47.5 -34t-37.5 -135zM536 270q-10 -48 -21.5 -84.5t-34 -76t-52 -65t-76 -42t-105.5 -16.5q-62 0 -102 15.5t-59 39t-24 63.5t-1 76.5t15 90.5q10 48 21.5 84.5
t34 76t52 65t76 42t105.5 16.5q61 0 101 -15.5t59.5 -39t24.5 -63.5t1 -76.5t-15 -90.5zM308 591l75 146h168l-127 -146h-116z" />
    <glyph glyph-name="ocircumflex" unicode="&#xf4;" horiz-adv-x="500" 
d="M256 270q-22 -102 -18.5 -135t33.5 -33q31 0 47 32.5t38 135.5q11 55 15 85t3 50.5t-9 27t-24 6.5q-30 0 -47.5 -34t-37.5 -135zM536 270q-10 -48 -21.5 -84.5t-34 -76t-52 -65t-76 -42t-105.5 -16.5q-62 0 -102 15.5t-59 39t-24 63.5t-1 76.5t15 90.5q10 48 21.5 84.5
t34 76t52 65t76 42t105.5 16.5q61 0 101 -15.5t59.5 -39t24.5 -63.5t1 -76.5t-15 -90.5zM220 591l93 146h192l31 -146h-122l-19 80l-53 -80h-122z" />
    <glyph glyph-name="otilde" unicode="&#xf5;" horiz-adv-x="500" 
d="M256 270q-22 -102 -18.5 -135t33.5 -33q31 0 47 32.5t38 135.5q11 55 15 85t3 50.5t-9 27t-24 6.5q-30 0 -47.5 -34t-37.5 -135zM536 270q-10 -48 -21.5 -84.5t-34 -76t-52 -65t-76 -42t-105.5 -16.5q-62 0 -102 15.5t-59 39t-24 63.5t-1 76.5t15 90.5q10 48 21.5 84.5
t34 76t52 65t76 42t105.5 16.5q61 0 101 -15.5t59.5 -39t24.5 -63.5t1 -76.5t-15 -90.5zM472 734h86q-22 -71 -56 -105.5t-73 -34.5q-30 0 -67 15t-48 15q-24 0 -29 -30h-86q47 140 127 140q24 0 62 -15q41 -15 50 -15q24 0 34 30z" />
    <glyph glyph-name="odieresis" unicode="&#xf6;" horiz-adv-x="500" 
d="M256 270q-22 -102 -18.5 -135t33.5 -33q31 0 47 32.5t38 135.5q11 55 15 85t3 50.5t-9 27t-24 6.5q-30 0 -47.5 -34t-37.5 -135zM536 270q-10 -48 -21.5 -84.5t-34 -76t-52 -65t-76 -42t-105.5 -16.5q-62 0 -102 15.5t-59 39t-24 63.5t-1 76.5t15 90.5q10 48 21.5 84.5
t34 76t52 65t76 42t105.5 16.5q61 0 101 -15.5t59.5 -39t24.5 -63.5t1 -76.5t-15 -90.5zM395 593l29 140h134l-29 -140h-134zM213 593l29 140h134l-29 -140h-134z" />
    <glyph glyph-name="divide" unicode="&#xf7;" horiz-adv-x="600" 
d="M209 41q8 42 43 70.5t77 28.5t64 -28.5t14 -70.5t-43 -70.5t-77 -28.5t-64 28.5t-14 70.5zM297 465q8 42 43.5 70.5t76.5 28.5q42 0 64.5 -28.5t13.5 -70.5q-8 -42 -43 -70.5t-76 -28.5q-42 0 -64.5 28.5t-14.5 70.5zM85 183l29 140h506l-29 -140h-506z" />
    <glyph glyph-name="oslash" unicode="&#xf8;" horiz-adv-x="500" 
d="M29 -26l56 70q-26 32 -26 98q0 40 17 129q10 48 21.5 84.5t34 76t52 65t76 42t105.5 16.5q70 0 115 -20l54 68l48 -36l-56 -70q27 -34 27 -98q0 -40 -17 -129q-10 -48 -21.5 -84.5t-34 -76t-52 -65t-76 -42t-105.5 -16.5q-77 0 -115 21l-56 -69zM253 252l121 152
q-2 20 -9.5 27.5t-23.5 7.5q-30 0 -47.5 -34t-37.5 -135q-3 -10 -3 -18zM358 290l-120 -151q2 -21 9.5 -29t23.5 -8q31 0 47 32.5t38 135.5l4 20h-2z" />
    <glyph glyph-name="ugrave" unicode="&#xf9;" 
d="M63 133l85 408h180l-74 -357q-16 -64 30 -64q24 0 37 15t21 49l74 357h180l-112 -541h-174l13 66h-2q-53 -80 -147 -80q-66 0 -97 33t-14 114zM339 591l-65 146h168l13 -146h-116z" />
    <glyph glyph-name="uacute" unicode="&#xfa;" 
d="M63 133l85 408h180l-74 -357q-16 -64 30 -64q24 0 37 15t21 49l74 357h180l-112 -541h-174l13 66h-2q-53 -80 -147 -80q-66 0 -97 33t-14 114zM318 591l75 146h168l-127 -146h-116z" />
    <glyph glyph-name="ucircumflex" unicode="&#xfb;" 
d="M63 133l85 408h180l-74 -357q-16 -64 30 -64q24 0 37 15t21 49l74 357h180l-112 -541h-174l13 66h-2q-53 -80 -147 -80q-66 0 -97 33t-14 114zM223 591l93 146h192l31 -146h-122l-19 80l-53 -80h-122z" />
    <glyph glyph-name="udieresis" unicode="&#xfc;" 
d="M63 133l85 408h180l-74 -357q-16 -64 30 -64q24 0 37 15t21 49l74 357h180l-112 -541h-174l13 66h-2q-53 -80 -147 -80q-66 0 -97 33t-14 114zM404 593l29 140h134l-29 -140h-134zM222 593l29 140h134l-29 -140h-134z" />
    <glyph glyph-name="yacute" unicode="&#xfd;" horiz-adv-x="463" 
d="M14 -172l26 126q16 -4 39 -4q29 0 47.5 14t21.5 27q1 4 1 17q0 16 -1 23l-37 510h186l-21 -365h2l128 365h180l-261 -559q-43 -91 -89.5 -124.5t-121.5 -33.5q-61 0 -100 4zM304 591l75 146h168l-127 -146h-116z" />
    <glyph glyph-name="thorn" unicode="&#xfe;" 
d="M275 271q-19 -88 -15.5 -119.5t33.5 -31.5q32 0 48.5 31t34.5 120q10 46 13.5 73t1.5 45.5t-10.5 25t-24.5 6.5q-30 0 -46.5 -30.5t-34.5 -119.5zM2 -176l185 890h180l-51 -247h2q25 46 59 67q31 21 76 21q88 0 111 -73t-11 -223q-31 -149 -85.5 -211t-136.5 -62
q-89 0 -98 75h-2l-49 -237h-180z" />
    <glyph glyph-name="ydieresis" unicode="&#xff;" horiz-adv-x="463" 
d="M14 -172l26 126q16 -4 39 -4q29 0 47.5 14t21.5 27q1 4 1 17q0 16 -1 23l-37 510h186l-21 -365h2l128 365h180l-261 -559q-43 -91 -89.5 -124.5t-121.5 -33.5q-61 0 -100 4zM379 593l29 140h134l-29 -140h-134zM197 593l29 140h134l-29 -140h-134z" />
    <glyph glyph-name="Amacron" unicode="&#x100;" horiz-adv-x="556" 
d="M385 265l12 303h-2l-114 -303h104zM-13 0l322 714h234l26 -714h-198l6 125h-148l-44 -125h-198zM276 788l20 98h316l-20 -98h-316z" />
    <glyph glyph-name="amacron" unicode="&#x101;" horiz-adv-x="500" 
d="M254 107q56 0 74 89l14 65h-2q-7 -9 -32 -15t-34 -10q-42 -18 -52 -70q-5 -27 3.5 -43t28.5 -16zM473 0h-174q-1 8 1 61h-2q-48 -75 -137 -75q-78 0 -106 43t-11 116q14 76 55.5 115t130.5 59l74 17q30 7 45.5 20.5t20.5 38.5q9 50 -36 50q-27 0 -42 -15t-24 -57h-156
q11 55 39 93.5t65.5 56.5t71 25t69.5 7q104 0 151 -38t27 -136l-55 -264q-19 -87 -7 -117zM216 614l20 98h316l-20 -98h-316z" />
    <glyph glyph-name="Abreve" unicode="&#x102;" horiz-adv-x="556" 
d="M385 265l12 303h-2l-114 -303h104zM-13 0l322 714h234l26 -714h-198l6 125h-148l-44 -125h-198zM303 911h80q-4 -34 12.5 -50t44.5 -16q65 0 85 66h80q-19 -69 -65.5 -107.5t-116.5 -38.5t-100 38.5t-20 107.5z" />
    <glyph glyph-name="abreve" unicode="&#x103;" horiz-adv-x="500" 
d="M254 107q56 0 74 89l14 65h-2q-7 -9 -32 -15t-34 -10q-42 -18 -52 -70q-5 -27 3.5 -43t28.5 -16zM473 0h-174q-1 8 1 61h-2q-48 -75 -137 -75q-78 0 -106 43t-11 116q14 76 55.5 115t130.5 59l74 17q30 7 45.5 20.5t20.5 38.5q9 50 -36 50q-27 0 -42 -15t-24 -57h-156
q11 55 39 93.5t65.5 56.5t71 25t69.5 7q104 0 151 -38t27 -136l-55 -264q-19 -87 -7 -117zM241 737h80q-4 -34 12.5 -50t44.5 -16q65 0 85 66h80q-19 -69 -65.5 -107.5t-116.5 -38.5t-100 38.5t-20 107.5z" />
    <glyph glyph-name="Aogonek" unicode="&#x104;" horiz-adv-x="556" 
d="M447 -152l20 -48q-36 -16 -70 -25q-30 -8 -72 -8q-59 0 -79.5 23t-12.5 67q6 34 36.5 65.5t101.5 77.5l6 125h-148l-44 -125h-198l322 714h234l26 -714h-118q-74 -68 -92 -91q-16 -22 -20 -39q-10 -40 29 -40q30 0 79 18zM385 265l12 303h-2l-114 -303h104z" />
    <glyph glyph-name="aogonek" unicode="&#x105;" horiz-adv-x="500" 
d="M299 0q-1 8 1 61h-2q-48 -75 -137 -75q-78 0 -106 43t-11 116q14 76 55.5 115t130.5 59l74 17q30 7 45.5 20.5t20.5 38.5q9 50 -36 50q-27 0 -42 -15t-24 -57h-156q11 55 39 93.5t65.5 56.5t71 25t69.5 7q104 0 151 -38t27 -136l-55 -264q-19 -87 -7 -117h-98
q-58 -62 -75 -88q-14 -23 -19 -42q-10 -40 27 -40q28 0 75 18l19 -48q-41 -19 -68 -26t-67 -7q-103 0 -87 90q11 62 119 143zM254 107q56 0 74 89l14 65h-2q-7 -9 -32 -15t-34 -10q-42 -18 -52 -70q-5 -27 3.5 -43t28.5 -16z" />
    <glyph glyph-name="Cacute" unicode="&#x106;" horiz-adv-x="537" 
d="M424 457l8 40q12 61 5.5 83t-34.5 22q-41 0 -62 -47t-52 -198q-11 -53 -17 -85.5t-10 -63t-3.5 -46.5t5 -28.5t13.5 -17t24 -4.5q34 0 52 35.5t40 139.5h180l-11 -53q-50 -248 -287 -248q-151 0 -188 85.5t10 285.5q42 206 115.5 288.5t216.5 82.5q231 0 184 -226l-9 -45
h-180zM372 765l75 146h168l-127 -146h-116z" />
    <glyph glyph-name="cacute" unicode="&#x107;" horiz-adv-x="481" 
d="M535 329h-162q12 60 6 87q-5 23 -35 23t-49 -35.5t-39 -133.5q-21 -100 -17 -134t35 -34q26 0 42.5 20t27.5 69l7 35h162q-26 -130 -86 -183q-63 -57 -177 -57q-37 0 -64.5 4.5t-53 15t-40.5 30.5t-24 50t-7.5 74t13.5 101q19 93 49.5 153.5t72.5 90t83 40t98 10.5
q114 0 147 -58t11 -168zM314 591l75 146h168l-127 -146h-116z" />
    <glyph glyph-name="Ccircumflex" unicode="&#x108;" horiz-adv-x="537" 
d="M424 457l8 40q12 61 5.5 83t-34.5 22q-41 0 -62 -47t-52 -198q-11 -53 -17 -85.5t-10 -63t-3.5 -46.5t5 -28.5t13.5 -17t24 -4.5q34 0 52 35.5t40 139.5h180l-11 -53q-50 -248 -287 -248q-151 0 -188 85.5t10 285.5q42 206 115.5 288.5t216.5 82.5q231 0 184 -226l-9 -45
h-180zM280 765l93 146h192l31 -146h-122l-19 80l-53 -80h-122z" />
    <glyph glyph-name="ccircumflex" unicode="&#x109;" horiz-adv-x="481" 
d="M535 329h-162q12 60 6 87q-5 23 -35 23t-49 -35.5t-39 -133.5q-21 -100 -17 -134t35 -34q26 0 42.5 20t27.5 69l7 35h162q-26 -130 -86 -183q-63 -57 -177 -57q-37 0 -64.5 4.5t-53 15t-40.5 30.5t-24 50t-7.5 74t13.5 101q19 93 49.5 153.5t72.5 90t83 40t98 10.5
q114 0 147 -58t11 -168zM218 591l93 146h192l31 -146h-122l-19 80l-53 -80h-122z" />
    <glyph glyph-name="Cdotaccent" unicode="&#x10a;" horiz-adv-x="537" 
d="M424 457l8 40q12 61 5.5 83t-34.5 22q-41 0 -62 -47t-52 -198q-11 -53 -17 -85.5t-10 -63t-3.5 -46.5t5 -28.5t13.5 -17t24 -4.5q34 0 52 35.5t40 139.5h180l-11 -53q-50 -248 -287 -248q-151 0 -188 85.5t10 285.5q42 206 115.5 288.5t216.5 82.5q231 0 184 -226l-9 -45
h-180zM359 768l29 140h134l-29 -140h-134z" />
    <glyph glyph-name="cdotaccent" unicode="&#x10b;" horiz-adv-x="481" 
d="M535 329h-162q12 60 6 87q-5 23 -35 23t-49 -35.5t-39 -133.5q-21 -100 -17 -134t35 -34q26 0 42.5 20t27.5 69l7 35h162q-26 -130 -86 -183q-63 -57 -177 -57q-37 0 -64.5 4.5t-53 15t-40.5 30.5t-24 50t-7.5 74t13.5 101q19 93 49.5 153.5t72.5 90t83 40t98 10.5
q114 0 147 -58t11 -168zM302 594l29 140h134l-29 -140h-134z" />
    <glyph glyph-name="Ccaron" unicode="&#x10c;" horiz-adv-x="537" 
d="M424 457l8 40q12 61 5.5 83t-34.5 22q-41 0 -62 -47t-52 -198q-11 -53 -17 -85.5t-10 -63t-3.5 -46.5t5 -28.5t13.5 -17t24 -4.5q34 0 52 35.5t40 139.5h180l-11 -53q-50 -248 -287 -248q-151 0 -188 85.5t10 285.5q42 206 115.5 288.5t216.5 82.5q231 0 184 -226l-9 -45
h-180zM338 765l-31 146h122l19 -80l53 80h122l-93 -146h-192z" />
    <glyph glyph-name="ccaron" unicode="&#x10d;" horiz-adv-x="481" 
d="M535 329h-162q12 60 6 87q-5 23 -35 23t-49 -35.5t-39 -133.5q-21 -100 -17 -134t35 -34q26 0 42.5 20t27.5 69l7 35h162q-26 -130 -86 -183q-63 -57 -177 -57q-37 0 -64.5 4.5t-53 15t-40.5 30.5t-24 50t-7.5 74t13.5 101q19 93 49.5 153.5t72.5 90t83 40t98 10.5
q114 0 147 -58t11 -168zM275 591l-31 146h122l19 -80l53 80h122l-93 -146h-192z" />
    <glyph glyph-name="Dcaron" unicode="&#x10e;" horiz-adv-x="574" 
d="M44 0l148 714h270q45 0 78 -10.5t53 -27t31 -44.5t14.5 -55.5t0 -67.5t-9 -73t-15.5 -79q-9 -42 -15.5 -69.5t-17.5 -64.5t-22.5 -61.5t-28 -52.5t-37 -45.5t-46.5 -33.5t-59.5 -23t-73.5 -7h-270zM350 580l-93 -446h37q37 0 57 16.5t35 61t36 145.5q11 52 16.5 84
t8 59.5t0.5 41t-10 23t-19.5 12.5t-30.5 3h-37zM311 765l-31 146h122l19 -80l53 80h122l-93 -146h-192z" />
    <glyph glyph-name="dcaron" unicode="&#x10f;" horiz-adv-x="649" 
d="M256 270q-10 -46 -13.5 -73t-1.5 -45.5t10 -25t24 -6.5q30 0 47 31t35 119q9 46 13 73.5t2 45.5t-10 25t-24 7q-32 0 -48 -30.5t-34 -120.5zM400 480l49 234h180l-148 -714h-174l15 74h-2q-51 -88 -141 -88q-89 0 -111.5 73t10.5 223q58 273 223 273q88 0 97 -75h2z
M634 568l53 146h142l-86 -146h-109z" />
    <glyph glyph-name="Dcroat" unicode="&#x110;" horiz-adv-x="574" 
d="M320 434h52l-26 -126h-52l-37 -174h37q37 0 57 16.5t35 61t36 145.5q11 52 16.5 84t8 59.5t0.5 41t-10 23t-19.5 12.5t-30.5 3h-37zM44 0l64 308h-53l26 126h53l58 280h270q45 0 78 -10.5t53 -27t31 -44.5t14.5 -55.5t0 -67.5t-9 -73t-15.5 -79q-9 -42 -15.5 -69.5
t-17.5 -64.5t-22.5 -61.5t-28 -52.5t-37 -45.5t-46.5 -33.5t-59.5 -23t-73.5 -7h-270z" />
    <glyph glyph-name="dcroat" unicode="&#x111;" horiz-adv-x="578" 
d="M335 574l17 82h85l12 58h180l-12 -58h97l-17 -82h-97l-119 -574h-174l15 74h-2q-51 -88 -141 -88q-89 0 -111.5 73t10.5 223q58 273 223 273q88 0 97 -75h2l19 94h-84zM256 270q-10 -46 -13.5 -73t-1.5 -45.5t10 -25t24 -6.5q30 0 47 31t35 119q9 46 13 73.5t2 45.5
t-10 25t-24 7q-32 0 -48 -30.5t-34 -120.5z" />
    <glyph glyph-name="Emacron" unicode="&#x112;" horiz-adv-x="500" 
d="M44 0l148 714h423l-32 -152h-237l-25 -122h222l-30 -146h-222l-30 -142h246l-31 -152h-432zM251 788l20 98h316l-20 -98h-316z" />
    <glyph glyph-name="emacron" unicode="&#x113;" horiz-adv-x="481" 
d="M369 338l5 24q10 43 2.5 63t-35.5 20q-27 0 -42 -19.5t-24 -63.5l-5 -24h99zM516 240h-267l-14 -71q-16 -73 33 -73q26 0 43 20.5t28 73.5h162q-22 -102 -83.5 -153t-170.5 -51q-98 0 -142.5 36t-44.5 117q0 57 16 131q31 154 98.5 219.5t190.5 65.5q112 0 152 -58.5
t11 -201.5zM216 614l20 98h316l-20 -98h-316z" />
    <glyph glyph-name="Ebreve" unicode="&#x114;" horiz-adv-x="500" 
d="M44 0l148 714h423l-32 -152h-237l-25 -122h222l-30 -146h-222l-30 -142h246l-31 -152h-432zM275 911h80q-4 -34 12.5 -50t44.5 -16q65 0 85 66h80q-19 -69 -65.5 -107.5t-116.5 -38.5t-100 38.5t-20 107.5z" />
    <glyph glyph-name="ebreve" unicode="&#x115;" horiz-adv-x="481" 
d="M369 338l5 24q10 43 2.5 63t-35.5 20q-27 0 -42 -19.5t-24 -63.5l-5 -24h99zM516 240h-267l-14 -71q-16 -73 33 -73q26 0 43 20.5t28 73.5h162q-22 -102 -83.5 -153t-170.5 -51q-98 0 -142.5 36t-44.5 117q0 57 16 131q31 154 98.5 219.5t190.5 65.5q112 0 152 -58.5
t11 -201.5zM235 737h80q-4 -34 12.5 -50t44.5 -16q65 0 85 66h80q-19 -69 -65.5 -107.5t-116.5 -38.5t-100 38.5t-20 107.5z" />
    <glyph glyph-name="Edotaccent" unicode="&#x116;" horiz-adv-x="500" 
d="M44 0l148 714h423l-32 -152h-237l-25 -122h222l-30 -146h-222l-30 -142h246l-31 -152h-432zM339 768l29 140h134l-29 -140h-134z" />
    <glyph glyph-name="edotaccent" unicode="&#x117;" horiz-adv-x="481" 
d="M369 338l5 24q10 43 2.5 63t-35.5 20q-27 0 -42 -19.5t-24 -63.5l-5 -24h99zM516 240h-267l-14 -71q-16 -73 33 -73q26 0 43 20.5t28 73.5h162q-22 -102 -83.5 -153t-170.5 -51q-98 0 -142.5 36t-44.5 117q0 57 16 131q31 154 98.5 219.5t190.5 65.5q112 0 152 -58.5
t11 -201.5zM299 594l29 140h134l-29 -140h-134z" />
    <glyph glyph-name="Eogonek" unicode="&#x118;" horiz-adv-x="500" 
d="M413 -152l20 -48q-36 -16 -70 -25q-30 -8 -72 -8q-59 0 -79.5 23t-12.5 67q6 34 36.5 65.5t101.5 77.5h-293l148 714h423l-32 -152h-237l-25 -122h222l-30 -146h-222l-30 -142h246l-31 -152h-59q-74 -68 -92 -91q-16 -22 -20 -39q-10 -40 29 -40q30 0 79 18z" />
    <glyph glyph-name="eogonek" unicode="&#x119;" horiz-adv-x="481" 
d="M320 -152l20 -48q-36 -16 -70 -25q-30 -8 -72 -8q-59 0 -79.5 23t-12.5 67q6 35 36 66q29 29 81 64q-47 1 -82 14q-81 31 -81 138q0 57 16 131q31 154 98.5 219.5t190.5 65.5q112 0 152 -58.5t11 -201.5l-12 -55h-267l-14 -71q-16 -73 33 -73q26 0 43 20.5t28 73.5h162
q-23 -100 -82 -152q-42 -36 -105 -46q-64 -60 -82 -83q-16 -22 -20 -39q-10 -40 29 -40q29 0 79 18zM369 338l5 24q10 43 2.5 63t-35.5 20q-27 0 -42 -19.5t-24 -63.5l-5 -24h99z" />
    <glyph glyph-name="Ecaron" unicode="&#x11a;" horiz-adv-x="500" 
d="M44 0l148 714h423l-32 -152h-237l-25 -122h222l-30 -146h-222l-30 -142h246l-31 -152h-432zM306 765l-31 146h122l19 -80l53 80h122l-93 -146h-192z" />
    <glyph glyph-name="ecaron" unicode="&#x11b;" horiz-adv-x="481" 
d="M369 338l5 24q10 43 2.5 63t-35.5 20q-27 0 -42 -19.5t-24 -63.5l-5 -24h99zM516 240h-267l-14 -71q-16 -73 33 -73q26 0 43 20.5t28 73.5h162q-22 -102 -83.5 -153t-170.5 -51q-98 0 -142.5 36t-44.5 117q0 57 16 131q31 154 98.5 219.5t190.5 65.5q112 0 152 -58.5
t11 -201.5zM268 591l-31 146h122l19 -80l53 80h122l-93 -146h-192z" />
    <glyph glyph-name="Gcircumflex" unicode="&#x11c;" horiz-adv-x="556" 
d="M338 262l26 126h240l-80 -388h-126l9 63h-2q-47 -77 -170 -77q-47 0 -79 10t-49.5 34t-25.5 51.5t-5 74.5t9.5 90t20.5 111q19 95 43.5 159.5t63.5 114.5t97 73.5t139 23.5q105 0 153 -58t23 -182h-180q11 57 7 83q-4 31 -36 31q-44 0 -65.5 -47t-52.5 -198
q-11 -53 -17 -85.5t-10 -63t-3.5 -46.5t5 -28.5t13.5 -17t24 -4.5q32 0 54 31.5t40 118.5h-66zM283 765l93 146h192l31 -146h-122l-19 80l-53 -80h-122z" />
    <glyph glyph-name="gcircumflex" unicode="&#x11d;" 
d="M409 466l16 75h168l-111 -532q-38 -193 -266 -193q-46 0 -80 6.5t-60.5 23t-36.5 47t-1 75.5h162q-5 -20 5 -31t31 -11q26 0 43 13t26 54l21 103h-2q-45 -81 -138 -81q-160 0 -103 267q31 149 86 211t138 62q90 0 100 -89h2zM264 285q-16 -86 -10.5 -111t33.5 -25
q26 0 44 27.5t35 108.5q12 54 12 85t-8.5 41t-25.5 10q-27 0 -45 -28t-35 -108zM231 591l93 146h192l31 -146h-122l-19 80l-53 -80h-122z" />
    <glyph glyph-name="Gbreve" unicode="&#x11e;" horiz-adv-x="556" 
d="M338 262l26 126h240l-80 -388h-126l9 63h-2q-47 -77 -170 -77q-47 0 -79 10t-49.5 34t-25.5 51.5t-5 74.5t9.5 90t20.5 111q19 95 43.5 159.5t63.5 114.5t97 73.5t139 23.5q105 0 153 -58t23 -182h-180q11 57 7 83q-4 31 -36 31q-44 0 -65.5 -47t-52.5 -198
q-11 -53 -17 -85.5t-10 -63t-3.5 -46.5t5 -28.5t13.5 -17t24 -4.5q32 0 54 31.5t40 118.5h-66zM320 911h80q-4 -34 12.5 -50t44.5 -16q65 0 85 66h80q-19 -69 -65.5 -107.5t-116.5 -38.5t-100 38.5t-20 107.5z" />
    <glyph glyph-name="gbreve" unicode="&#x11f;" 
d="M409 466l16 75h168l-111 -532q-38 -193 -266 -193q-46 0 -80 6.5t-60.5 23t-36.5 47t-1 75.5h162q-5 -20 5 -31t31 -11q26 0 43 13t26 54l21 103h-2q-45 -81 -138 -81q-160 0 -103 267q31 149 86 211t138 62q90 0 100 -89h2zM264 285q-16 -86 -10.5 -111t33.5 -25
q26 0 44 27.5t35 108.5q12 54 12 85t-8.5 41t-25.5 10q-27 0 -45 -28t-35 -108zM265 737h80q-4 -34 12.5 -50t44.5 -16q65 0 85 66h80q-19 -69 -65.5 -107.5t-116.5 -38.5t-100 38.5t-20 107.5z" />
    <glyph glyph-name="Gdotaccent" unicode="&#x120;" horiz-adv-x="556" 
d="M338 262l26 126h240l-80 -388h-126l9 63h-2q-47 -77 -170 -77q-47 0 -79 10t-49.5 34t-25.5 51.5t-5 74.5t9.5 90t20.5 111q19 95 43.5 159.5t63.5 114.5t97 73.5t139 23.5q105 0 153 -58t23 -182h-180q11 57 7 83q-4 31 -36 31q-44 0 -65.5 -47t-52.5 -198
q-11 -53 -17 -85.5t-10 -63t-3.5 -46.5t5 -28.5t13.5 -17t24 -4.5q32 0 54 31.5t40 118.5h-66zM372 768l29 140h134l-29 -140h-134z" />
    <glyph glyph-name="gdotaccent" unicode="&#x121;" 
d="M409 466l16 75h168l-111 -532q-38 -193 -266 -193q-46 0 -80 6.5t-60.5 23t-36.5 47t-1 75.5h162q-5 -20 5 -31t31 -11q26 0 43 13t26 54l21 103h-2q-45 -81 -138 -81q-160 0 -103 267q31 149 86 211t138 62q90 0 100 -89h2zM264 285q-16 -86 -10.5 -111t33.5 -25
q26 0 44 27.5t35 108.5q12 54 12 85t-8.5 41t-25.5 10q-27 0 -45 -28t-35 -108zM315 594l29 140h134l-29 -140h-134z" />
    <glyph glyph-name="Gcommaaccent" unicode="&#x122;" horiz-adv-x="556" 
d="M338 262l26 126h240l-80 -388h-126l9 63h-2q-47 -77 -170 -77q-47 0 -79 10t-49.5 34t-25.5 51.5t-5 74.5t9.5 90t20.5 111q19 95 43.5 159.5t63.5 114.5t97 73.5t139 23.5q105 0 153 -58t23 -182h-180q11 57 7 83q-4 31 -36 31q-44 0 -65.5 -47t-52.5 -198
q-11 -53 -17 -85.5t-10 -63t-3.5 -46.5t5 -28.5t13.5 -17t24 -4.5q32 0 54 31.5t40 118.5h-66zM190 -155l22 105h142l-18 -86q-19 -97 -142 -97l9 42q27 5 37 12.5t15 23.5h-65z" />
    <glyph glyph-name="gcommaaccent" unicode="&#x123;" 
d="M409 466l16 75h168l-111 -532q-38 -193 -266 -193q-46 0 -80 6.5t-60.5 23t-36.5 47t-1 75.5h162q-5 -20 5 -31t31 -11q26 0 43 13t26 54l21 103h-2q-45 -81 -138 -81q-160 0 -103 267q31 149 86 211t138 62q90 0 100 -89h2zM264 285q-16 -86 -10.5 -111t33.5 -25
q26 0 44 27.5t35 108.5q12 54 12 85t-8.5 41t-25.5 10q-27 0 -45 -28t-35 -108zM491 714l-22 -105h-142l18 86q19 97 142 97l-9 -42q-43 -9 -52 -36h65z" />
    <glyph glyph-name="Hcircumflex" unicode="&#x124;" horiz-adv-x="574" 
d="M44 0l148 714h186l-55 -262h114l55 262h186l-148 -714h-186l61 294h-114l-61 -294h-186zM282 765l93 146h192l31 -146h-122l-19 80l-53 -80h-122z" />
    <glyph glyph-name="hcircumflex" unicode="&#x125;" 
d="M36 0l148 714h180l-48 -233h2q53 74 140 74q63 0 95 -34t15 -113l-84 -408h-180l74 357q7 34 0 49t-31 15t-37 -15t-20 -49l-74 -357h-180zM254 765l93 146h192l31 -146h-122l-19 80l-53 -80h-122z" />
    <glyph glyph-name="Hbar" unicode="&#x126;" horiz-adv-x="574" 
d="M44 0l148 714h186l-28 -131h114l28 131h186l-148 -714h-186l51 253h-114l-51 -253h-186zM314 411h114l19 90h-114z" />
    <glyph glyph-name="hbar" unicode="&#x127;" horiz-adv-x="590" 
d="M121 574l17 82h104l12 58h180l-12 -58h72l-17 -82h-72l-19 -93h2q53 74 140 74q63 0 95 -34t15 -113l-84 -408h-180l74 357q7 34 0 49t-31 15t-37 -15t-20 -49l-74 -357h-180l119 574h-104z" />
    <glyph glyph-name="Itilde" unicode="&#x128;" horiz-adv-x="260" 
d="M37 0l148 714h186l-148 -714h-186zM386 908h86q-22 -71 -56 -105.5t-73 -34.5q-30 0 -67 15t-48 15q-24 0 -29 -30h-86q47 140 127 140q24 0 62 -15q41 -15 50 -15q24 0 34 30z" />
    <glyph glyph-name="itilde" unicode="&#x129;" horiz-adv-x="258" 
d="M39 0l112 541h180l-112 -541h-180zM351 734h86q-22 -71 -56 -105.5t-73 -34.5q-30 0 -67 15t-48 15q-24 0 -29 -30h-86q47 140 127 140q25 0 62 -15q41 -15 50 -15q24 0 34 30z" />
    <glyph glyph-name="Imacron" unicode="&#x12a;" horiz-adv-x="260" 
d="M37 0l148 714h186l-148 -714h-186zM124 788l20 98h316l-20 -98h-316z" />
    <glyph glyph-name="imacron" unicode="&#x12b;" horiz-adv-x="258" 
d="M39 0l112 541h180l-112 -541h-180zM89 614l20 98h316l-20 -98h-316z" />
    <glyph glyph-name="Iogonek" unicode="&#x12e;" horiz-adv-x="260" 
d="M187 -152l20 -48q-36 -16 -70 -25q-30 -8 -72 -8q-59 0 -79.5 23t-12.5 67q6 34 36.5 65.5t101.5 77.5h-74l148 714h186l-148 -714h-32q-74 -68 -92 -91q-16 -22 -20 -39q-10 -40 29 -40q30 0 79 18z" />
    <glyph glyph-name="iogonek" unicode="&#x12f;" horiz-adv-x="258" 
d="M185 -152l20 -48q-36 -16 -70 -25q-30 -8 -72 -8q-59 0 -79.5 23t-12.5 67q6 34 36.5 65.5t101.5 77.5h-70l112 541h180l-112 -541h-30q-74 -68 -92 -91q-16 -22 -20 -39q-10 -40 29 -40q30 0 79 18zM159 580l28 134h180l-28 -134h-180z" />
    <glyph glyph-name="Idotaccent" unicode="&#x130;" horiz-adv-x="260" 
d="M37 0l148 714h186l-148 -714h-186zM218 768l29 140h134l-29 -140h-134z" />
    <glyph glyph-name="dotlessi" unicode="&#x131;" horiz-adv-x="258" 
d="M39 0l112 541h180l-112 -541h-180z" />
    <glyph glyph-name="Jcircumflex" unicode="&#x134;" horiz-adv-x="481" 
d="M413 714h186l-102 -491q-26 -126 -95 -181.5t-187 -55.5q-114 0 -153.5 58t-15.5 173l3 15h168l-8 -35q-5 -28 -5 -42q0 -43 36 -43q23 0 38.5 18.5t26.5 66.5zM351 765l93 146h192l31 -146h-122l-19 80l-53 -80h-122z" />
    <glyph glyph-name="jcircumflex" unicode="&#x135;" horiz-adv-x="258" 
d="M36 -12l115 553h180l-120 -576q-19 -86 -66.5 -113.5t-129.5 -27.5q-37 0 -79 5l25 121q36 0 53 7.5t22 30.5zM91 591l93 146h192l31 -146h-122l-19 80l-53 -80h-122z" />
    <glyph glyph-name="Kcommaaccent" unicode="&#x136;" horiz-adv-x="556" 
d="M37 0l148 714h186l-57 -274h2l195 274h198l-245 -312l119 -402h-212l-58 249l-51 -60l-39 -189h-186zM199 -155l22 105h142l-18 -86q-19 -97 -142 -97l9 42q27 5 37 12.5t15 23.5h-65z" />
    <glyph glyph-name="kcommaaccent" unicode="&#x137;" horiz-adv-x="500" 
d="M31 0l148 714h180l-75 -360h2l139 187h192l-196 -223l103 -318h-192l-53 186l-40 -47l-28 -139h-180zM165 -155l22 105h142l-18 -86q-19 -97 -142 -97l9 42q27 5 37 12.5t15 23.5h-65z" />
    <glyph glyph-name="Lacute" unicode="&#x139;" horiz-adv-x="463" 
d="M44 0l148 714h186l-117 -562h229l-31 -152h-415zM234 765l75 146h168l-127 -146h-116z" />
    <glyph glyph-name="lacute" unicode="&#x13a;" horiz-adv-x="258" 
d="M39 0l148 714h180l-148 -714h-180zM199 765l75 146h168l-127 -146h-116z" />
    <glyph glyph-name="Lcommaaccent" unicode="&#x13b;" horiz-adv-x="463" 
d="M44 0l148 714h186l-117 -562h229l-31 -152h-415zM148 -155l22 105h142l-18 -86q-19 -97 -142 -97l9 42q27 5 37 12.5t15 23.5h-65z" />
    <glyph glyph-name="lcommaaccent" unicode="&#x13c;" horiz-adv-x="258" 
d="M39 0l148 714h180l-148 -714h-180zM29 -155l22 105h142l-18 -86q-19 -97 -142 -97l9 42q27 5 37 12.5t15 23.5h-65z" />
    <glyph glyph-name="Lcaron" unicode="&#x13d;" horiz-adv-x="463" 
d="M44 0l148 714h186l-117 -562h229l-31 -152h-415zM404 568l53 146h142l-86 -146h-109z" />
    <glyph glyph-name="lcaron" unicode="&#x13e;" horiz-adv-x="386" 
d="M39 0l148 714h180l-148 -714h-180zM371 568l53 146h142l-86 -146h-109z" />
    <glyph glyph-name="Ldot" unicode="&#x13f;" horiz-adv-x="463" 
d="M44 0l148 714h186l-117 -562h229l-31 -152h-415zM374 401l29 140h134l-29 -140h-134z" />
    <glyph glyph-name="ldot" unicode="&#x140;" horiz-adv-x="417" 
d="M39 0l148 714h180l-148 -714h-180zM348 401l29 140h134l-29 -140h-134z" />
    <glyph glyph-name="Lslash" unicode="&#x141;" horiz-adv-x="463" 
d="M44 0l44 215l-65 -37l24 116l65 37l80 383h186l-55 -265l140 79l-24 -116l-140 -79l-38 -181h229l-31 -152h-415z" />
    <glyph glyph-name="lslash" unicode="&#x142;" horiz-adv-x="278" 
d="M49 0l56 270l-66 -36l23 110l66 36l69 334h180l-47 -224l66 36l-23 -110l-65 -36l-79 -380h-180z" />
    <glyph glyph-name="Nacute" unicode="&#x143;" horiz-adv-x="592" 
d="M44 0l148 714h208l28 -440h2l92 440h174l-148 -714h-204l-33 441h-2l-91 -441h-174zM383 765l75 146h168l-127 -146h-116z" />
    <glyph glyph-name="nacute" unicode="&#x144;" 
d="M36 0l112 541h174l-14 -66h2q53 80 148 80q66 0 96.5 -33t13.5 -114l-84 -408h-180l74 357q7 34 0 49t-31 15t-37 -15t-20 -49l-74 -357h-180zM289 591l75 146h168l-127 -146h-116z" />
    <glyph glyph-name="Ncommaaccent" unicode="&#x145;" horiz-adv-x="592" 
d="M44 0l148 714h208l28 -440h2l92 440h174l-148 -714h-204l-33 441h-2l-91 -441h-174zM209 -155l22 105h142l-18 -86q-19 -97 -142 -97l9 42q27 5 37 12.5t15 23.5h-65z" />
    <glyph glyph-name="ncommaaccent" unicode="&#x146;" 
d="M36 0l112 541h174l-14 -66h2q53 80 148 80q66 0 96.5 -33t13.5 -114l-84 -408h-180l74 357q7 34 0 49t-31 15t-37 -15t-20 -49l-74 -357h-180zM162 -155l22 105h142l-18 -86q-19 -97 -142 -97l9 42q27 5 37 12.5t15 23.5h-65z" />
    <glyph glyph-name="Ncaron" unicode="&#x147;" horiz-adv-x="592" 
d="M44 0l148 714h208l28 -440h2l92 440h174l-148 -714h-204l-33 441h-2l-91 -441h-174zM345 765l-31 146h122l19 -80l53 80h122l-93 -146h-192z" />
    <glyph glyph-name="ncaron" unicode="&#x148;" 
d="M36 0l112 541h174l-14 -66h2q53 80 148 80q66 0 96.5 -33t13.5 -114l-84 -408h-180l74 357q7 34 0 49t-31 15t-37 -15t-20 -49l-74 -357h-180zM266 591l-31 146h122l19 -80l53 80h122l-93 -146h-192z" />
    <glyph glyph-name="Omacron" unicode="&#x14c;" horiz-adv-x="556" 
d="M289 357q-11 -53 -17 -85.5t-10 -63t-3.5 -46.5t5 -28.5t13.5 -17t24 -4.5q41 0 62 47t52 198q11 53 17 85.5t10 63t3.5 46.5t-5 28.5t-13.5 17t-24 4.5q-41 0 -62 -47t-52 -198zM97 357q42 202 116.5 286.5t215.5 84.5t181 -85.5t-3 -285.5q-42 -202 -116.5 -286.5
t-215.5 -84.5t-181 85.5t3 285.5zM275 788l20 98h316l-20 -98h-316z" />
    <glyph glyph-name="omacron" unicode="&#x14d;" horiz-adv-x="500" 
d="M256 270q-22 -102 -18.5 -135t33.5 -33q31 0 47 32.5t38 135.5q11 55 15 85t3 50.5t-9 27t-24 6.5q-30 0 -47.5 -34t-37.5 -135zM536 270q-10 -48 -21.5 -84.5t-34 -76t-52 -65t-76 -42t-105.5 -16.5q-62 0 -102 15.5t-59 39t-24 63.5t-1 76.5t15 90.5q10 48 21.5 84.5
t34 76t52 65t76 42t105.5 16.5q61 0 101 -15.5t59.5 -39t24.5 -63.5t1 -76.5t-15 -90.5zM211 614l20 98h316l-20 -98h-316z" />
    <glyph glyph-name="Obreve" unicode="&#x14e;" horiz-adv-x="556" 
d="M289 357q-11 -53 -17 -85.5t-10 -63t-3.5 -46.5t5 -28.5t13.5 -17t24 -4.5q41 0 62 47t52 198q11 53 17 85.5t10 63t3.5 46.5t-5 28.5t-13.5 17t-24 4.5q-41 0 -62 -47t-52 -198zM97 357q42 202 116.5 286.5t215.5 84.5t181 -85.5t-3 -285.5q-42 -202 -116.5 -286.5
t-215.5 -84.5t-181 85.5t3 285.5zM305 911h80q-4 -34 12.5 -50t44.5 -16q65 0 85 66h80q-19 -69 -65.5 -107.5t-116.5 -38.5t-100 38.5t-20 107.5z" />
    <glyph glyph-name="obreve" unicode="&#x14f;" horiz-adv-x="500" 
d="M256 270q-22 -102 -18.5 -135t33.5 -33q31 0 47 32.5t38 135.5q11 55 15 85t3 50.5t-9 27t-24 6.5q-30 0 -47.5 -34t-37.5 -135zM536 270q-10 -48 -21.5 -84.5t-34 -76t-52 -65t-76 -42t-105.5 -16.5q-62 0 -102 15.5t-59 39t-24 63.5t-1 76.5t15 90.5q10 48 21.5 84.5
t34 76t52 65t76 42t105.5 16.5q61 0 101 -15.5t59.5 -39t24.5 -63.5t1 -76.5t-15 -90.5zM241 737h80q-4 -34 12.5 -50t44.5 -16q65 0 85 66h80q-19 -69 -65.5 -107.5t-116.5 -38.5t-100 38.5t-20 107.5z" />
    <glyph glyph-name="Ohungarumlaut" unicode="&#x150;" horiz-adv-x="556" 
d="M289 357q-11 -53 -17 -85.5t-10 -63t-3.5 -46.5t5 -28.5t13.5 -17t24 -4.5q41 0 62 47t52 198q11 53 17 85.5t10 63t3.5 46.5t-5 28.5t-13.5 17t-24 4.5q-41 0 -62 -47t-52 -198zM97 357q42 202 116.5 286.5t215.5 84.5t181 -85.5t-3 -285.5q-42 -202 -116.5 -286.5
t-215.5 -84.5t-181 85.5t3 285.5zM475 764l75 146h168l-127 -146h-116zM275 764l75 146h168l-127 -146h-116z" />
    <glyph glyph-name="ohungarumlaut" unicode="&#x151;" horiz-adv-x="500" 
d="M256 270q-22 -102 -18.5 -135t33.5 -33q31 0 47 32.5t38 135.5q11 55 15 85t3 50.5t-9 27t-24 6.5q-30 0 -47.5 -34t-37.5 -135zM536 270q-10 -48 -21.5 -84.5t-34 -76t-52 -65t-76 -42t-105.5 -16.5q-62 0 -102 15.5t-59 39t-24 63.5t-1 76.5t15 90.5q10 48 21.5 84.5
t34 76t52 65t76 42t105.5 16.5q61 0 101 -15.5t59.5 -39t24.5 -63.5t1 -76.5t-15 -90.5zM411 590l75 146h168l-127 -146h-116zM211 590l75 146h168l-127 -146h-116z" />
    <glyph glyph-name="OE" unicode="&#x152;" horiz-adv-x="759" 
d="M283 357q-16 -79 -23 -121t-6.5 -73t11 -41t32.5 -10q41 0 62 47t52 198q11 53 17 85.5t10 63t3.5 46.5t-5 28.5t-13.5 17t-24 4.5q-43 0 -63.5 -46.5t-52.5 -198.5zM572 294l-30 -142h232l-31 -152h-384l6 31h-2q-48 -45 -132 -45q-86 0 -124 35.5t-38.5 118t28.5 217.5
q44 208 107.5 289.5t175.5 81.5q83 0 121 -45l6 31h375l-32 -152h-223l-25 -122h208l-30 -146h-208z" />
    <glyph glyph-name="oe" unicode="&#x153;" horiz-adv-x="740" 
d="M598 190h162q-24 -102 -81 -151q-65 -53 -160 -53q-54 0 -90 17.5t-45 49.5q-59 -67 -160 -67q-113 0 -151 65t-4 219q32 154 98 219.5t189 65.5q44 0 80.5 -18t46.5 -43q67 61 161 61q105 0 139 -58t5 -202l-12 -55h-266l-14 -71q-16 -73 32 -73q26 0 42 20.5t28 73.5z
M536 362l-5 -24h98l5 24q10 43 2.5 63t-35.5 20q-26 0 -41 -19.5t-24 -63.5zM249 270q-22 -102 -18.5 -135t33.5 -33t46.5 32.5t38.5 135.5q11 55 15 85t3 50.5t-9 27t-24 6.5q-30 0 -47.5 -34t-37.5 -135z" />
    <glyph glyph-name="Racute" unicode="&#x154;" horiz-adv-x="574" 
d="M350 580l-35 -168h37q39 0 63 22.5t33 62.5q9 44 -5.5 63.5t-56.5 19.5h-36zM44 0l148 714h291q101 0 138 -51.5t18 -138.5q-30 -151 -157 -170v-2q63 -6 81 -45t2 -115l-12 -61q-18 -83 -12 -99q6 -15 17 -22l-2 -10h-198q-4 12 -4 33q0 26 14 103l10 48q12 61 3.5 81.5
t-43.5 20.5h-49l-59 -286h-186zM345 765l75 146h168l-127 -146h-116z" />
    <glyph glyph-name="racute" unicode="&#x155;" horiz-adv-x="352" 
d="M31 0l112 541h174l-18 -86h2q26 48 63.5 74t78.5 26h29l-35 -168q-17 4 -44 4q-50 0 -80 -22t-41 -74l-61 -295h-180zM209 591l75 146h168l-127 -146h-116z" />
    <glyph glyph-name="Rcommaaccent" unicode="&#x156;" horiz-adv-x="574" 
d="M350 580l-35 -168h37q39 0 63 22.5t33 62.5q9 44 -5.5 63.5t-56.5 19.5h-36zM44 0l148 714h291q101 0 138 -51.5t18 -138.5q-30 -151 -157 -170v-2q63 -6 81 -45t2 -115l-12 -61q-18 -83 -12 -99q6 -15 17 -22l-2 -10h-198q-4 12 -4 33q0 26 14 103l10 48q12 61 3.5 81.5
t-43.5 20.5h-49l-59 -286h-186zM192 -155l22 105h142l-18 -86q-19 -97 -142 -97l9 42q27 5 37 12.5t15 23.5h-65z" />
    <glyph glyph-name="rcommaaccent" unicode="&#x157;" horiz-adv-x="352" 
d="M31 0l112 541h174l-18 -86h2q26 48 63.5 74t78.5 26h29l-35 -168q-17 4 -44 4q-50 0 -80 -22t-41 -74l-61 -295h-180zM23 -155l22 105h142l-18 -86q-19 -97 -142 -97l9 42q27 5 37 12.5t15 23.5h-65z" />
    <glyph glyph-name="Rcaron" unicode="&#x158;" horiz-adv-x="574" 
d="M350 580l-35 -168h37q39 0 63 22.5t33 62.5q9 44 -5.5 63.5t-56.5 19.5h-36zM44 0l148 714h291q101 0 138 -51.5t18 -138.5q-30 -151 -157 -170v-2q63 -6 81 -45t2 -115l-12 -61q-18 -83 -12 -99q6 -15 17 -22l-2 -10h-198q-4 12 -4 33q0 26 14 103l10 48q12 61 3.5 81.5
t-43.5 20.5h-49l-59 -286h-186zM312 765l-31 146h122l19 -80l53 80h122l-93 -146h-192z" />
    <glyph glyph-name="rcaron" unicode="&#x159;" horiz-adv-x="352" 
d="M31 0l112 541h174l-18 -86h2q26 48 63.5 74t78.5 26h29l-35 -168q-17 4 -44 4q-50 0 -80 -22t-41 -74l-61 -295h-180zM212 591l-31 146h122l19 -80l53 80h122l-93 -146h-192z" />
    <glyph glyph-name="Sacute" unicode="&#x15a;" horiz-adv-x="537" 
d="M601 508h-174l4 17q14 77 -37 77q-28 0 -46.5 -18.5t-24.5 -44.5q-6 -28 6 -49t36 -33t54 -26t59 -28.5t51.5 -41t30.5 -62.5t-3 -93q-45 -220 -298 -220q-120 0 -170 46.5t-29 154.5l6 25h180l-4 -17q-18 -83 44 -83q28 0 48 19.5t26 49.5q6 28 -6 49t-35.5 32.5
t-52 25.5t-56 28t-48.5 39t-29.5 60t2.5 90q48 223 281 223q122 0 165.5 -52.5t19.5 -167.5zM359 765l75 146h168l-127 -146h-116z" />
    <glyph glyph-name="sacute" unicode="&#x15b;" horiz-adv-x="463" 
d="M51 168h158q-3 -16 -3 -30q0 -13 5 -23q10 -19 34 -19q22 0 39.5 12.5t22.5 33.5q5 26 -18.5 42t-59.5 27t-71 27.5t-54 53.5t-7 94q14 75 79.5 122t170.5 47q203 0 168 -170h-156q6 34 -2.5 47t-33.5 13q-44 0 -55 -42q-4 -21 13 -34.5t44.5 -20.5t59 -19.5t57 -28.5
t37 -50t1.5 -83q-17 -80 -85.5 -130.5t-168.5 -50.5q-111 0 -152 45.5t-23 136.5zM288 591l75 146h168l-127 -146h-116z" />
    <glyph glyph-name="Scircumflex" unicode="&#x15c;" horiz-adv-x="537" 
d="M601 508h-174l4 17q14 77 -37 77q-28 0 -46.5 -18.5t-24.5 -44.5q-6 -28 6 -49t36 -33t54 -26t59 -28.5t51.5 -41t30.5 -62.5t-3 -93q-45 -220 -298 -220q-120 0 -170 46.5t-29 154.5l6 25h180l-4 -17q-18 -83 44 -83q28 0 48 19.5t26 49.5q6 28 -6 49t-35.5 32.5
t-52 25.5t-56 28t-48.5 39t-29.5 60t2.5 90q48 223 281 223q122 0 165.5 -52.5t19.5 -167.5zM266 765l93 146h192l31 -146h-122l-19 80l-53 -80h-122z" />
    <glyph glyph-name="scircumflex" unicode="&#x15d;" horiz-adv-x="463" 
d="M51 168h158q-3 -16 -3 -30q0 -13 5 -23q10 -19 34 -19q22 0 39.5 12.5t22.5 33.5q5 26 -18.5 42t-59.5 27t-71 27.5t-54 53.5t-7 94q14 75 79.5 122t170.5 47q203 0 168 -170h-156q6 34 -2.5 47t-33.5 13q-44 0 -55 -42q-4 -21 13 -34.5t44.5 -20.5t59 -19.5t57 -28.5
t37 -50t1.5 -83q-17 -80 -85.5 -130.5t-168.5 -50.5q-111 0 -152 45.5t-23 136.5zM197 591l93 146h192l31 -146h-122l-19 80l-53 -80h-122z" />
    <glyph glyph-name="Scedilla" unicode="&#x15e;" horiz-adv-x="537" 
d="M601 508h-174l4 17q14 77 -37 77q-28 0 -46.5 -18.5t-24.5 -44.5q-6 -28 6 -49t36 -33t54 -26t59 -28.5t51.5 -41t30.5 -62.5t-3 -93q-23 -115 -99 -167q-67 -46 -169 -52l-34 -47q15 5 30 5q39 0 61 -20t14 -59q-9 -49 -49 -74t-101 -25q-64 0 -109 20l32 56
q31 -16 65 -16q23 0 38.5 9.5t18.5 24.5q3 17 -7.5 24.5t-26.5 7.5t-31 -7l-20 21l59 80q-34 1 -71 10q-130 31 -98 190l6 25h180l-4 -17q-18 -83 44 -83q28 0 48 19.5t26 49.5q6 28 -6 49t-35.5 32.5t-52 25.5t-56 28t-48.5 39t-29.5 60t2.5 90q48 223 281 223
q122 0 165.5 -52.5t19.5 -167.5z" />
    <glyph glyph-name="Scedilla" unicode="&#xf6c1;" horiz-adv-x="537" 
d="M601 508h-174l4 17q14 77 -37 77q-28 0 -46.5 -18.5t-24.5 -44.5q-6 -28 6 -49t36 -33t54 -26t59 -28.5t51.5 -41t30.5 -62.5t-3 -93q-23 -115 -99 -167q-67 -46 -169 -52l-34 -47q15 5 30 5q39 0 61 -20t14 -59q-9 -49 -49 -74t-101 -25q-64 0 -109 20l32 56
q31 -16 65 -16q23 0 38.5 9.5t18.5 24.5q3 17 -7.5 24.5t-26.5 7.5t-31 -7l-20 21l59 80q-34 1 -71 10q-130 31 -98 190l6 25h180l-4 -17q-18 -83 44 -83q28 0 48 19.5t26 49.5q6 28 -6 49t-35.5 32.5t-52 25.5t-56 28t-48.5 39t-29.5 60t2.5 90q48 223 281 223
q122 0 165.5 -52.5t19.5 -167.5z" />
    <glyph glyph-name="scedilla" unicode="&#x15f;" horiz-adv-x="463" 
d="M51 168h158q-3 -16 -3 -30q0 -13 5 -23q10 -19 34 -19q22 0 39.5 12.5t22.5 33.5q5 26 -18.5 42t-59.5 27t-71 27.5t-54 53.5t-7 94q14 75 79.5 122t170.5 47q203 0 168 -170h-156q6 34 -2.5 47t-33.5 13q-44 0 -55 -42q-4 -21 13 -34.5t44.5 -20.5t59 -19.5t57 -28.5
t37 -50t1.5 -83q-12 -60 -54 -104t-106 -63q-28 -10 -64 -13l-34 -47q15 5 30 5q39 0 61 -20t14 -59q-9 -49 -49 -74t-101 -25q-64 0 -109 20l32 56q31 -16 65 -16q23 0 38.5 9.5t18.5 24.5q3 17 -7.5 24.5t-26.5 7.5t-31 -7l-20 21l59 80q-88 6 -123 45q-40 46 -22 136z
" />
    <glyph glyph-name="scedilla" unicode="&#xf6c2;" horiz-adv-x="463" 
d="M51 168h158q-3 -16 -3 -30q0 -13 5 -23q10 -19 34 -19q22 0 39.5 12.5t22.5 33.5q5 26 -18.5 42t-59.5 27t-71 27.5t-54 53.5t-7 94q14 75 79.5 122t170.5 47q203 0 168 -170h-156q6 34 -2.5 47t-33.5 13q-44 0 -55 -42q-4 -21 13 -34.5t44.5 -20.5t59 -19.5t57 -28.5
t37 -50t1.5 -83q-12 -60 -54 -104t-106 -63q-28 -10 -64 -13l-34 -47q15 5 30 5q39 0 61 -20t14 -59q-9 -49 -49 -74t-101 -25q-64 0 -109 20l32 56q31 -16 65 -16q23 0 38.5 9.5t18.5 24.5q3 17 -7.5 24.5t-26.5 7.5t-31 -7l-20 21l59 80q-88 6 -123 45q-40 46 -22 136z
" />
    <glyph glyph-name="Scaron" unicode="&#x160;" horiz-adv-x="537" 
d="M601 508h-174l4 17q14 77 -37 77q-28 0 -46.5 -18.5t-24.5 -44.5q-6 -28 6 -49t36 -33t54 -26t59 -28.5t51.5 -41t30.5 -62.5t-3 -93q-45 -220 -298 -220q-120 0 -170 46.5t-29 154.5l6 25h180l-4 -17q-18 -83 44 -83q28 0 48 19.5t26 49.5q6 28 -6 49t-35.5 32.5
t-52 25.5t-56 28t-48.5 39t-29.5 60t2.5 90q48 223 281 223q122 0 165.5 -52.5t19.5 -167.5zM328 765l-31 146h122l19 -80l53 80h122l-93 -146h-192z" />
    <glyph glyph-name="scaron" unicode="&#x161;" horiz-adv-x="463" 
d="M51 168h158q-3 -16 -3 -30q0 -13 5 -23q10 -19 34 -19q22 0 39.5 12.5t22.5 33.5q5 26 -18.5 42t-59.5 27t-71 27.5t-54 53.5t-7 94q14 75 79.5 122t170.5 47q203 0 168 -170h-156q6 34 -2.5 47t-33.5 13q-44 0 -55 -42q-4 -21 13 -34.5t44.5 -20.5t59 -19.5t57 -28.5
t37 -50t1.5 -83q-17 -80 -85.5 -130.5t-168.5 -50.5q-111 0 -152 45.5t-23 136.5zM254 591l-31 146h122l19 -80l53 80h122l-93 -146h-192z" />
    <glyph glyph-name="Tcommaaccent" unicode="&#x162;" horiz-adv-x="462" 
d="M138 0l115 556h-140l33 158h466l-33 -158h-140l-115 -556h-186zM130 -155l22 105h142l-18 -86q-19 -97 -142 -97l9 42q27 5 37 12.5t15 23.5h-65z" />
    <glyph glyph-name="tcommaaccent" unicode="&#x163;" horiz-adv-x="315" 
d="M89 420l25 121h60l33 159h180l-33 -159h71l-25 -121h-71l-54 -258q-5 -23 3.5 -32.5t30.5 -9.5h28l-24 -120q-53 -6 -100 -6q-87 0 -114 26t-10 112l60 288h-60zM100 -155l22 105h142l-18 -86q-19 -97 -142 -97l9 42q27 5 37 12.5t15 23.5h-65z" />
    <glyph glyph-name="Tcaron" unicode="&#x164;" horiz-adv-x="462" 
d="M138 0l115 556h-140l33 158h466l-33 -158h-140l-115 -556h-186zM285 765l-31 146h122l19 -80l53 80h122l-93 -146h-192z" />
    <glyph glyph-name="tcaron" unicode="&#x165;" horiz-adv-x="439" 
d="M420 568l53 146h142l-86 -146h-109zM89 420l25 121h60l33 159h180l-33 -159h71l-25 -121h-71l-54 -258q-5 -23 3.5 -32.5t30.5 -9.5h28l-24 -120q-53 -6 -100 -6q-87 0 -114 26t-10 112l60 288h-60z" />
    <glyph glyph-name="Tbar" unicode="&#x166;" horiz-adv-x="462" 
d="M103 333l18 83h103l29 140h-140l33 158h466l-33 -158h-140l-29 -140h99l-18 -83h-98l-69 -333h-186l69 333h-104z" />
    <glyph glyph-name="tbar" unicode="&#x167;" horiz-adv-x="315" 
d="M44 261l18 82h71l16 77h-60l25 121h60l33 159h180l-33 -159h71l-25 -121h-71l-16 -77h79l-18 -82h-79l-20 -99q-5 -23 3.5 -32.5t30.5 -9.5h28l-24 -120q-53 -6 -100 -6q-87 0 -114 26t-10 112l27 129h-72z" />
    <glyph glyph-name="Utilde" unicode="&#x168;" horiz-adv-x="556" 
d="M184 714h186l-107 -515q-5 -28 -5 -43q0 -44 43 -44q28 0 45.5 19t28.5 68l107 515h186l-97 -468q-31 -144 -102 -202t-194 -58t-171 58t-17 202zM533 908h86q-22 -71 -56 -105.5t-73 -34.5q-30 0 -67 15t-48 15q-24 0 -29 -30h-86q47 140 127 140q25 0 62 -15
q41 -15 50 -15q24 0 34 30z" />
    <glyph glyph-name="utilde" unicode="&#x169;" 
d="M63 133l85 408h180l-74 -357q-16 -64 30 -64q24 0 37 15t21 49l74 357h180l-112 -541h-174l13 66h-2q-53 -80 -147 -80q-66 0 -97 33t-14 114zM484 734h86q-22 -71 -56 -105.5t-73 -34.5q-30 0 -67 15t-48 15q-24 0 -29 -30h-86q47 140 127 140q24 0 62 -15
q41 -15 50 -15q24 0 34 30z" />
    <glyph glyph-name="Umacron" unicode="&#x16a;" horiz-adv-x="556" 
d="M184 714h186l-107 -515q-5 -28 -5 -43q0 -44 43 -44q28 0 45.5 19t28.5 68l107 515h186l-97 -468q-31 -144 -102 -202t-194 -58t-171 58t-17 202zM273 788l20 98h316l-20 -98h-316z" />
    <glyph glyph-name="umacron" unicode="&#x16b;" 
d="M63 133l85 408h180l-74 -357q-16 -64 30 -64q24 0 37 15t21 49l74 357h180l-112 -541h-174l13 66h-2q-53 -80 -147 -80q-66 0 -97 33t-14 114zM223 614l20 98h316l-20 -98h-316z" />
    <glyph glyph-name="Ubreve" unicode="&#x16c;" horiz-adv-x="556" 
d="M184 714h186l-107 -515q-5 -28 -5 -43q0 -44 43 -44q28 0 45.5 19t28.5 68l107 515h186l-97 -468q-31 -144 -102 -202t-194 -58t-171 58t-17 202zM303 911h80q-4 -34 12.5 -50t44.5 -16q65 0 85 66h80q-19 -69 -65.5 -107.5t-116.5 -38.5t-100 38.5t-20 107.5z" />
    <glyph glyph-name="ubreve" unicode="&#x16d;" 
d="M63 133l85 408h180l-74 -357q-16 -64 30 -64q24 0 37 15t21 49l74 357h180l-112 -541h-174l13 66h-2q-53 -80 -147 -80q-66 0 -97 33t-14 114zM246 737h80q-4 -34 12.5 -50t44.5 -16q65 0 85 66h80q-19 -69 -65.5 -107.5t-116.5 -38.5t-100 38.5t-20 107.5z" />
    <glyph glyph-name="Uring" unicode="&#x16e;" horiz-adv-x="556" 
d="M184 714h186l-107 -515q-5 -28 -5 -43q0 -44 43 -44q28 0 45.5 19t28.5 68l107 515h186l-97 -468q-31 -144 -102 -202t-194 -58t-171 58t-17 202zM400 844q-5 -20 5.5 -33t29.5 -13t34.5 13t20.5 33q4 19 -6.5 32t-29.5 13t-34.5 -13t-19.5 -32zM331 844q8 47 48 78
t89 31q48 0 73.5 -31t17.5 -78q-10 -48 -47 -78.5t-90 -30.5q-49 0 -75 31t-16 78z" />
    <glyph glyph-name="uring" unicode="&#x16f;" 
d="M63 133l85 408h180l-74 -357q-16 -64 30 -64q24 0 37 15t21 49l74 357h180l-112 -541h-174l13 66h-2q-53 -80 -147 -80q-66 0 -97 33t-14 114zM359 680q-5 -20 5.5 -33t29.5 -13t34.5 13t20.5 33q4 19 -6.5 32t-29.5 13t-34.5 -13t-19.5 -32zM290 680q8 47 48 78t89 31
q48 0 73.5 -31t17.5 -78q-10 -48 -47 -78.5t-90 -30.5q-49 0 -75 31t-16 78z" />
    <glyph glyph-name="Uhungarumlaut" unicode="&#x170;" horiz-adv-x="556" 
d="M184 714h186l-107 -515q-5 -28 -5 -43q0 -44 43 -44q28 0 45.5 19t28.5 68l107 515h186l-97 -468q-31 -144 -102 -202t-194 -58t-171 58t-17 202zM475 764l75 146h168l-127 -146h-116zM275 764l75 146h168l-127 -146h-116z" />
    <glyph glyph-name="uhungarumlaut" unicode="&#x171;" 
d="M63 133l85 408h180l-74 -357q-16 -64 30 -64q24 0 37 15t21 49l74 357h180l-112 -541h-174l13 66h-2q-53 -80 -147 -80q-66 0 -97 33t-14 114zM424 590l75 146h168l-127 -146h-116zM224 590l75 146h168l-127 -146h-116z" />
    <glyph glyph-name="Uogonek" unicode="&#x172;" horiz-adv-x="556" 
d="M351 -152l20 -48q-36 -16 -70 -25q-30 -8 -72 -8q-59 0 -79.5 23t-12.5 67q6 35 36 66q29 29 81 64q-46 1 -81 12q-131 37 -86 247l97 468h186l-107 -515q-5 -28 -5 -43q0 -44 43 -44q28 0 45.5 19t28.5 68l107 515h186l-97 -468q-24 -110 -70.5 -169.5t-119.5 -77.5
q-24 -6 -36 -8q-63 -58 -82 -82q-16 -22 -20 -39q-10 -40 29 -40q30 0 79 18z" />
    <glyph glyph-name="uogonek" unicode="&#x173;" 
d="M63 133l85 408h180l-74 -357q-16 -64 30 -64q24 0 37 15t21 49l74 357h180l-112 -541h-102q-50 -66 -62 -87q-16 -30 -19 -43q-7 -40 26 -40q26 0 71 18l18 -48q-66 -33 -127 -33q-99 0 -83 90q9 59 104 143l13 66h-2q-53 -80 -147 -80q-66 0 -97 33t-14 114z" />
    <glyph glyph-name="Wcircumflex" unicode="&#x174;" horiz-adv-x="778" 
d="M283 220l170 494h168l-30 -494h2l153 494h180l-270 -714h-204l37 480h-2l-161 -480h-204l26 714h180l-47 -494h2zM389 765l93 146h192l31 -146h-122l-19 80l-53 -80h-122z" />
    <glyph glyph-name="wcircumflex" unicode="&#x175;" horiz-adv-x="740" 
d="M110 0l2 541h174l-36 -389h2l134 389h192l-28 -389h2l126 389h174l-222 -541h-204l24 383h-2l-134 -383h-204zM340 591l93 146h192l31 -146h-122l-19 80l-53 -80h-122z" />
    <glyph glyph-name="Ycircumflex" unicode="&#x176;" 
d="M167 0l58 281l-92 433h204l18 -249h2l122 249h204l-272 -433l-58 -281h-186zM255 765l93 146h192l31 -146h-122l-19 80l-53 -80h-122z" />
    <glyph glyph-name="ycircumflex" unicode="&#x177;" horiz-adv-x="463" 
d="M14 -172l26 126q16 -4 39 -4q29 0 47.5 14t21.5 27q1 4 1 17q0 16 -1 23l-37 510h186l-21 -365h2l128 365h180l-261 -559q-43 -91 -89.5 -124.5t-121.5 -33.5q-61 0 -100 4zM200 591l93 146h192l31 -146h-122l-19 80l-53 -80h-122z" />
    <glyph glyph-name="Ydieresis" unicode="&#x178;" 
d="M167 0l58 281l-92 433h204l18 -249h2l122 249h204l-272 -433l-58 -281h-186zM437 767l29 140h134l-29 -140h-134zM255 767l29 140h134l-29 -140h-134z" />
    <glyph glyph-name="Zacute" unicode="&#x179;" horiz-adv-x="481" 
d="M20 0l27 134l313 428h-209l32 152h426l-28 -134l-317 -428h228l-31 -152h-441zM331 765l75 146h168l-127 -146h-116z" />
    <glyph glyph-name="zacute" unicode="&#x17a;" horiz-adv-x="444" 
d="M106 401l29 140h402l-28 -134l-257 -267h207l-29 -140h-416l29 140l248 261h-185zM267 591l75 146h168l-127 -146h-116z" />
    <glyph glyph-name="Zdotaccent" unicode="&#x17b;" horiz-adv-x="481" 
d="M20 0l27 134l313 428h-209l32 152h426l-28 -134l-317 -428h228l-31 -152h-441zM328 768l29 140h134l-29 -140h-134z" />
    <glyph glyph-name="zdotaccent" unicode="&#x17c;" horiz-adv-x="444" 
d="M106 401l29 140h402l-28 -134l-257 -267h207l-29 -140h-416l29 140l248 261h-185zM269 594l29 140h134l-29 -140h-134z" />
    <glyph glyph-name="Zcaron" unicode="&#x17d;" horiz-adv-x="481" 
d="M20 0l27 134l313 428h-209l32 152h426l-28 -134l-317 -428h228l-31 -152h-441zM304 765l-31 146h122l19 -80l53 80h122l-93 -146h-192z" />
    <glyph glyph-name="zcaron" unicode="&#x17e;" horiz-adv-x="444" 
d="M106 401l29 140h402l-28 -134l-257 -267h207l-29 -140h-416l29 140l248 261h-185zM240 591l-31 146h122l19 -80l53 80h122l-93 -146h-192z" />
    <glyph glyph-name="florin" unicode="&#x192;" 
d="M125 316l42 104h107l48 120q36 91 96 132.5t158 41.5q30 0 80 -8l-46 -110q-22 2 -33 2q-31 0 -53.5 -20t-44.5 -72l-37 -86h111l-42 -104h-109l-118 -295q-25 -62 -53 -102t-61.5 -60.5t-65.5 -27.5t-76 -7q-38 0 -88 8l47 108h41q31 0 51.5 21t43.5 81l108 274h-106z
" />
    <glyph glyph-name="Scommaaccent" unicode="&#x218;" horiz-adv-x="537" 
d="M601 508h-174l4 17q14 77 -37 77q-28 0 -46.5 -18.5t-24.5 -44.5q-6 -28 6 -49t36 -33t54 -26t59 -28.5t51.5 -41t30.5 -62.5t-3 -93q-45 -220 -298 -220q-120 0 -170 46.5t-29 154.5l6 25h180l-4 -17q-18 -83 44 -83q28 0 48 19.5t26 49.5q6 28 -6 49t-35.5 32.5
t-52 25.5t-56 28t-48.5 39t-29.5 60t2.5 90q48 223 281 223q122 0 165.5 -52.5t19.5 -167.5zM166 -155l22 105h142l-18 -86q-19 -97 -142 -97l9 42q27 5 37 12.5t15 23.5h-65z" />
    <glyph glyph-name="scommaaccent" unicode="&#x219;" horiz-adv-x="463" 
d="M51 168h158q-3 -16 -3 -30q0 -13 5 -23q10 -19 34 -19q22 0 39.5 12.5t22.5 33.5q5 26 -18.5 42t-59.5 27t-71 27.5t-54 53.5t-7 94q14 75 79.5 122t170.5 47q203 0 168 -170h-156q6 34 -2.5 47t-33.5 13q-44 0 -55 -42q-4 -21 13 -34.5t44.5 -20.5t59 -19.5t57 -28.5
t37 -50t1.5 -83q-17 -80 -85.5 -130.5t-168.5 -50.5q-111 0 -152 45.5t-23 136.5zM126 -155l22 105h142l-18 -86q-19 -97 -142 -97l9 42q27 5 37 12.5t15 23.5h-65z" />
    <glyph glyph-name="uni021A" unicode="&#x21a;" horiz-adv-x="462" 
d="M138 0l115 556h-140l33 158h466l-33 -158h-140l-115 -556h-186zM130 -155l22 105h142l-18 -86q-19 -97 -142 -97l9 42q27 5 37 12.5t15 23.5h-65z" />
    <glyph glyph-name="uni021B" unicode="&#x21b;" horiz-adv-x="315" 
d="M89 420l25 121h60l33 159h180l-33 -159h71l-25 -121h-71l-54 -258q-5 -23 3.5 -32.5t30.5 -9.5h28l-24 -120q-53 -6 -100 -6q-87 0 -114 26t-10 112l60 288h-60zM100 -155l22 105h142l-18 -86q-19 -97 -142 -97l9 42q27 5 37 12.5t15 23.5h-65z" />
    <glyph glyph-name="circumflex" unicode="&#x2c6;" horiz-adv-x="260" 
d="M91 591l93 146h192l31 -146h-122l-19 80l-53 -80h-122z" />
    <glyph glyph-name="caron" unicode="&#x2c7;" horiz-adv-x="260" 
d="M153 591l-31 146h122l19 -80l53 80h122l-93 -146h-192z" />
    <glyph glyph-name="uni02C9" unicode="&#x2c9;" horiz-adv-x="260" 
d="M97 614l20 98h316l-20 -98h-316z" />
    <glyph glyph-name="breve" unicode="&#x2d8;" horiz-adv-x="260" 
d="M129 737h80q-4 -34 12.5 -50t44.5 -16q65 0 85 66h80q-19 -69 -65.5 -107.5t-116.5 -38.5t-100 38.5t-20 107.5z" />
    <glyph glyph-name="dotaccent" unicode="&#x2d9;" horiz-adv-x="260" 
d="M182 594l29 140h134l-29 -140h-134z" />
    <glyph glyph-name="ring" unicode="&#x2da;" horiz-adv-x="260" 
d="M229 690q-5 -20 5.5 -33t29.5 -13t34.5 13t20.5 33q4 19 -6.5 32t-29.5 13t-34.5 -13t-19.5 -32zM160 690q8 47 48 78t89 31q48 0 73.5 -31t17.5 -78q-10 -48 -47 -78.5t-90 -30.5q-49 0 -75 31t-16 78z" />
    <glyph glyph-name="ogonek" unicode="&#x2db;" horiz-adv-x="260" 
d="M196 -152l20 -48q-36 -16 -70 -25q-30 -8 -72 -8q-59 0 -79.5 23t-12.5 67q6 34 36.5 65.5t101.5 77.5h80q-74 -68 -92 -91q-16 -22 -20 -39q-10 -40 29 -40q29 0 79 18z" />
    <glyph glyph-name="tilde" unicode="&#x2dc;" horiz-adv-x="260" 
d="M359 734h86q-22 -71 -56 -105.5t-73 -34.5q-30 0 -67 15t-48 15q-24 0 -29 -30h-86q47 140 127 140q25 0 62 -15q41 -15 50 -15q24 0 34 30z" />
    <glyph glyph-name="hungarumlaut" unicode="&#x2dd;" horiz-adv-x="260" 
d="M266 590l75 146h168l-127 -146h-116zM66 590l75 146h168l-127 -146h-116z" />
    <glyph glyph-name="uni0394" unicode="&#x394;" horiz-adv-x="722" 
d="M462 148l-59 392l-202 -392h261zM642 0h-698l400 712h177z" />
    <glyph glyph-name="uni03A9" unicode="&#x3a9;" horiz-adv-x="759" 
d="M723 462q0 -104 -64.5 -191t-164.5 -105l-5 -24h175l-30 -142h-305l47 223q77 13 121 72.5t44 140.5q0 63 -33.5 102t-96.5 39q-84 0 -141 -69t-57 -155q0 -108 94 -130l-48 -223h-299l30 142h169l6 24q-126 50 -126 191q0 156 114.5 260t274.5 104q124 0 209.5 -69
t85.5 -190z" />
    <glyph glyph-name="uni03BC" unicode="&#x3bc;" 
d="M0 -176l148 717h180l-74 -357q-16 -64 30 -64q24 0 37 15t21 49l74 357h180l-112 -541h-174l13 66h-2q-51 -80 -93 -80q-9 0 -15 3l-34 -165h-179z" />
    <glyph glyph-name="pi" unicode="&#x3c0;" horiz-adv-x="629" 
d="M637 496l-30 -141h-81q0 -2 -12.5 -52.5t-21.5 -95.5t-9 -63q0 -21 29 -21q23 0 48 11l-24 -113q-62 -30 -114 -30q-107 0 -107 76q0 30 9 71l47 217h-139l-76 -355h-155l76 355h-74l30 141h604z" />
    <glyph glyph-name="endash" unicode="&#x2013;" horiz-adv-x="500" 
d="M44 216l31 146h500l-31 -146h-500z" />
    <glyph glyph-name="emdash" unicode="&#x2014;" horiz-adv-x="1000" 
d="M44 216l31 146h1000l-31 -146h-1000z" />
    <glyph glyph-name="quoteleft" unicode="&#x2018;" horiz-adv-x="260" 
d="M116 340l38 180q20 98 70 145t138 49l-18 -86q-36 -4 -54.5 -23.5t-26.5 -60.5l-3 -12h64l-40 -192h-168z" />
    <glyph glyph-name="quoteright" unicode="&#x2019;" horiz-adv-x="260" 
d="M154 522l40 192h168l-37 -180q-20 -98 -70 -145t-139 -49l18 86q36 4 55 23.5t27 60.5l2 12h-64z" />
    <glyph glyph-name="quotesinglbase" unicode="&#x201a;" horiz-adv-x="260" 
d="M47 6l40 192h168l-38 -180q-20 -98 -70 -145t-138 -49l18 86q36 4 54.5 23.5t26.5 60.5l3 12h-64z" />
    <glyph glyph-name="quotedblleft" unicode="&#x201c;" horiz-adv-x="481" 
d="M112 340l38 180q20 98 70 145t138 49l-18 -86q-36 -4 -54.5 -23.5t-26.5 -60.5l-3 -12h64l-40 -192h-168zM341 340l38 180q20 98 70 145t138 49l-18 -86q-36 -4 -54.5 -23.5t-26.5 -60.5l-3 -12h64l-40 -192h-168z" />
    <glyph glyph-name="quotedblright" unicode="&#x201d;" horiz-adv-x="481" 
d="M379 522l40 192h168l-37 -180q-20 -98 -70 -145t-139 -49l18 86q36 4 55 23.5t27 60.5l2 12h-64zM150 522l40 192h168l-37 -180q-20 -98 -70 -145t-139 -49l18 86q36 4 55 23.5t27 60.5l2 12h-64z" />
    <glyph glyph-name="quotedblbase" unicode="&#x201e;" horiz-adv-x="481" 
d="M272 6l40 192h168l-38 -180q-20 -98 -70 -145t-138 -49l18 86q36 4 54.5 23.5t26.5 60.5l3 12h-64zM43 6l40 192h168l-38 -180q-20 -98 -70 -145t-138 -49l18 86q36 4 54.5 23.5t26.5 60.5l3 12h-64z" />
    <glyph glyph-name="dagger" unicode="&#x2020;" 
d="M278 520l40 194h180l-40 -194h162l-29 -140h-162l-109 -520h-180l109 520h-162l29 140h162z" />
    <glyph glyph-name="daggerdbl" unicode="&#x2021;" 
d="M19 54l29 140h162l39 186h-162l29 140h162l40 194h180l-40 -194h162l-29 -140h-162l-39 -186h162l-29 -140h-162l-41 -194h-180l41 194h-162z" />
    <glyph glyph-name="bullet" unicode="&#x2022;" horiz-adv-x="500" 
d="M146 357q14 74 77.5 126t137.5 52q75 0 115 -51.5t26 -126.5q-16 -74 -78.5 -126t-136.5 -52t-115.5 52t-25.5 126z" />
    <glyph glyph-name="ellipsis" unicode="&#x2026;" horiz-adv-x="1000" 
d="M749 0l41 198h168l-41 -198h-168zM416 0l41 198h168l-41 -198h-168zM83 0l41 198h168l-41 -198h-168z" />
    <glyph glyph-name="perthousand" unicode="&#x2030;" horiz-adv-x="1111" 
d="M944 178q-8 -35 -11.5 -56t-2 -34t7.5 -17.5t17 -4.5q21 0 32 21t27 91q14 69 12 90.5t-24 21.5q-21 0 -32.5 -21.5t-25.5 -90.5zM822 178q20 105 64.5 148.5t131.5 43.5t113 -43t5 -149q-22 -105 -65.5 -148.5t-131.5 -43.5q-87 0 -113 43.5t-4 148.5zM119 516
q22 105 65.5 148.5t131.5 43.5q87 0 113 -43.5t4 -148.5t-65.5 -148.5t-131.5 -43.5q-87 0 -113 43.5t-4 148.5zM473 178q20 105 64.5 148.5t131.5 43.5t113 -43t5 -149q-22 -105 -65.5 -148.5t-131.5 -43.5q-87 0 -113 43.5t-4 148.5zM241 516q-7 -37 -10 -56.5t-2 -33.5
t6.5 -18t16.5 -4q22 0 34 22t25 90q14 69 12 90.5t-24 21.5q-21 0 -32.5 -21.5t-25.5 -90.5zM164 -14l467 722h110l-467 -722h-110zM595 178q-8 -35 -11.5 -56t-2 -34t7.5 -17.5t17 -4.5q21 0 32 21t27 91q14 69 12 90.5t-24 21.5q-21 0 -32.5 -21.5t-25.5 -90.5z" />
    <glyph glyph-name="guilsinglleft" unicode="&#x2039;" horiz-adv-x="240" 
d="M79 179l45 220l178 104l-33 -158l-95 -56l72 -56l-33 -158z" />
    <glyph glyph-name="guilsinglright" unicode="&#x203a;" horiz-adv-x="240" 
d="M57 75l33 158l96 56l-73 56l33 158l134 -104l-45 -220z" />
    <glyph glyph-name="fraction" unicode="&#x2044;" horiz-adv-x="167" 
d="M-171 -31l543 756h110l-543 -756h-110z" />
    <glyph glyph-name="Euro" unicode="&#x20ac;" 
d="M631 674l-85 -158q-25 76 -82 76q-47 0 -70 -32.5t-33 -84.5h168l-47 -98h-142l-8 -36l-3 -14h134l-47 -98h-105q-11 -70 -6 -91q9 -35 50 -35q73 0 163 113l-37 -181q-76 -50 -171 -50q-117 0 -153.5 62t-17.5 182h-61l47 98h31l9 41l2 9h-53l47 98h30
q34 121 99.5 179.5t183.5 58.5q76 0 157 -39z" />
    <glyph glyph-name="afii61289" unicode="&#x2113;" horiz-adv-x="500" 
d="M513 586q0 -82 -61.5 -157.5t-202.5 -165.5q-25 -100 -25 -123q0 -41 40 -41q35 0 97 39h2l38 -90q-91 -62 -185 -62q-71 0 -109.5 34.5t-38.5 91.5q0 11 7 50l-58 -40h-2l-41 88l128 82l48 229q20 92 79.5 146t143.5 54q61 0 100.5 -39t39.5 -96zM384 579q0 17 -8 28.5
t-20 11.5q-30 0 -43 -59l-35 -162q47 39 76.5 87.5t29.5 93.5z" />
    <glyph glyph-name="trademark" unicode="&#x2122;" horiz-adv-x="1000" 
d="M892 302l54 260h-2l-144 -260h-86l-36 260h-2l-54 -260h-128l86 412h174l43 -219l135 219h174l-86 -412h-128zM176 302l64 308h-104l22 104h348l-22 -104h-104l-64 -308h-140z" />
    <glyph glyph-name="Omega" unicode="&#x2126;" horiz-adv-x="759" 
d="M723 462q0 -104 -64.5 -191t-164.5 -105l-5 -24h175l-30 -142h-305l47 223q77 13 121 72.5t44 140.5q0 63 -33.5 102t-96.5 39q-84 0 -141 -69t-57 -155q0 -108 94 -130l-48 -223h-299l30 142h169l6 24q-126 50 -126 191q0 156 114.5 260t274.5 104q124 0 209.5 -69
t85.5 -190z" />
    <glyph glyph-name="estimated" unicode="&#x212e;" horiz-adv-x="600" 
d="M561 259h-404v-181q59 -59 145 -59q122 0 193 120l35 -21q-46 -72 -98 -103.5t-130 -31.5q-115 0 -186.5 79t-71.5 197q0 119 71 197.5t187 78.5q115 0 186.5 -77t72.5 -199zM157 295h291v145q-63 60 -147 60t-144 -60v-145z" />
    <glyph glyph-name="partialdiff" unicode="&#x2202;" horiz-adv-x="593" 
d="M377 270q0 4 -0.5 11t-0.5 10q-42 42 -94 42q-49 0 -75 -35.5t-26 -85.5q0 -46 24 -81t67 -35q29 0 50.5 17.5t33 45.5t16.5 56t5 55zM534 354q0 -71 -11.5 -131.5t-39 -117.5t-81.5 -90t-130 -33q-108 0 -174.5 64.5t-66.5 172.5q0 97 63.5 163.5t160.5 66.5
q69 0 124 -41q0 33 -5.5 63t-17.5 60.5t-37 49t-60 18.5q-62 0 -120 -58l-84 94q91 83 200 83q76 0 132 -31t87 -84.5t45.5 -115t14.5 -133.5z" />
    <glyph glyph-name="Delta" unicode="&#x2206;" horiz-adv-x="722" 
d="M462 148l-59 392l-202 -392h261zM642 0h-698l400 712h177z" />
    <glyph glyph-name="product" unicode="&#x220f;" horiz-adv-x="759" 
d="M711 -214h-156v845h-350v-845h-157v1000h663v-1000z" />
    <glyph glyph-name="summation" unicode="&#x2211;" horiz-adv-x="704" 
d="M674 -214h-644v135l286 372l-275 356v137h621v-156h-413l251 -337l-266 -351h440v-156z" />
    <glyph glyph-name="minus" unicode="&#x2212;" horiz-adv-x="600" 
d="M85 183l29 140h506l-29 -140h-506z" />
    <glyph glyph-name="uni2215" unicode="&#x2215;" horiz-adv-x="167" 
d="M-171 -31l543 756h110l-543 -756h-110z" />
    <glyph glyph-name="uni2219" unicode="&#x2219;" horiz-adv-x="260" 
d="M87 274q8 42 43.5 70.5t76.5 28.5q42 0 64.5 -28.5t13.5 -70.5q-8 -42 -43 -70.5t-76 -28.5q-42 0 -64.5 28.5t-14.5 70.5z" />
    <glyph glyph-name="radical" unicode="&#x221a;" horiz-adv-x="611" 
d="M596 786l-226 -1000h-141l-141 286l-58 -27l-57 122l198 91l104 -232l154 760h167z" />
    <glyph glyph-name="infinity" unicode="&#x221e;" horiz-adv-x="889" 
d="M346 271q-22 32 -53.5 57t-62.5 25q-33 0 -52.5 -23.5t-19.5 -57.5q0 -35 20 -56.5t54 -21.5q61 0 114 77zM693 273q0 35 -20.5 57.5t-54.5 22.5q-57 0 -113 -82q55 -78 115 -78q35 0 54 22.5t19 57.5zM825 276q0 -96 -54 -158.5t-149 -62.5q-61 0 -107 30.5t-89 87.5
q-41 -56 -86 -86.5t-106 -30.5q-96 0 -152 61.5t-56 158.5q0 95 54 154.5t149 59.5q45 0 82 -18t60.5 -42t54.5 -66q44 63 87.5 94.5t109.5 31.5q95 0 148.5 -59.5t53.5 -154.5z" />
    <glyph glyph-name="integral" unicode="&#x222b;" horiz-adv-x="667" 
d="M573 684q0 -32 -20 -52.5t-52 -20.5q-33 0 -49 17t-17 37.5t-5.5 37.5t-17.5 17q-20 0 -20 -40q0 -34 4 -101t4 -101l1 -302v-32q1 -45 0.5 -69t-4 -67.5t-10.5 -69t-21.5 -58.5t-35.5 -51t-53.5 -31t-74.5 -13q-52 0 -97 26.5t-45 75.5q0 32 19.5 52.5t51.5 20.5
t48.5 -17t18 -37t6.5 -37t17 -17q20 0 20 42q0 30 -4.5 87t-4.5 86v389v49t2 48.5t5.5 52.5t11.5 46t19 46t29 36t41 32q36 20 90 20q53 0 98 -26t45 -76z" />
    <glyph glyph-name="approxequal" unicode="&#x2248;" horiz-adv-x="593" 
d="M458 253h103q-3 -49 -17.5 -95t-50 -84t-85.5 -38q-41 0 -131 30t-128 30q-45 0 -52 -52h-102q0 44 17.5 92t54.5 85t83 37q44 0 128.5 -29.5t128.5 -29.5q25 0 36 13.5t15 40.5zM458 503h103q-3 -49 -19 -95.5t-53 -83.5t-87 -37q-35 0 -125 30t-129 30
q-22 0 -35.5 -15.5t-15.5 -38.5h-102q0 47 17 95t54.5 84.5t86.5 36.5q39 0 128 -29.5t127 -29.5q45 0 50 53z" />
    <glyph glyph-name="notequal" unicode="&#x2260;" horiz-adv-x="593" 
d="M550 72h-285l-80 -163l-138 68l47 95h-89v157h166l43 87h-209v158h287l79 161l138 -68l-47 -93h88v-158h-165l-43 -87h208v-157z" />
    <glyph glyph-name="lessequal" unicode="&#x2264;" horiz-adv-x="593" 
d="M550 -53h-545v157h545v-157zM550 128l-545 164v156l545 148v-160l-326 -66l326 -81v-161z" />
    <glyph glyph-name="greaterequal" unicode="&#x2265;" horiz-adv-x="593" 
d="M550 -53h-545v157h545v-157zM550 292l-545 -164v161l326 81l-326 66v160l545 -148v-156z" />
    <glyph glyph-name="lozenge" unicode="&#x25ca;" horiz-adv-x="593" 
d="M400 356l-104 231l-105 -231l105 -231zM562 356l-196 -391h-142l-194 391l196 391h140z" />
    <glyph glyph-name="commaaccent" unicode="&#xf004;" horiz-adv-x="260" 
d="M69 -155l22 105h142l-18 -86q-19 -97 -142 -97l9 42q27 5 37 12.5t15 23.5h-65z" />
    <glyph glyph-name="commaaccent" unicode="&#xf6c3;" horiz-adv-x="260" 
d="M69 -155l22 105h142l-18 -86q-19 -97 -142 -97l9 42q27 5 37 12.5t15 23.5h-65z" />
    <glyph glyph-name="dotlessj" unicode="&#xf6be;" horiz-adv-x="258" 
d="M36 -12l115 553h180l-120 -576q-19 -86 -66.5 -113.5t-129.5 -27.5q-37 0 -79 5l25 121q36 0 53 7.5t22 30.5z" />
    <glyph glyph-name="dotlessj" unicode="&#xfb0f;" horiz-adv-x="258" 
d="M36 -12l115 553h180l-120 -576q-19 -86 -66.5 -113.5t-129.5 -27.5q-37 0 -79 5l25 121q36 0 53 7.5t22 30.5z" />
    <glyph glyph-name="uniF8FF" unicode="&#xf8ff;" horiz-adv-x="512" 
d="M222 117h56v67h-56v-67zM225 234h46q0 52 6 72q6 19 43 52q37 34 50 60t13 60q0 59 -35 95t-89 36q-56 0 -92 -34t-43 -103l50 -8q11 95 82 95q31 0 53.5 -24.5t22.5 -60.5q0 -20 -9.5 -37t-40.5 -46q-31 -31 -46 -59q-13 -25 -13 -81zM462 50h-412v617h412v-617z
M512 718h-512v-718h512v718z" />
    <glyph glyph-name="commaaccent.alt" horiz-adv-x="260" 
d="M350 714l-22 -105h-142l18 86q19 97 142 97l-9 -42q-43 -9 -52 -36h65z" />
    <glyph glyph-name="caron.alt" horiz-adv-x="260" 
d="M195 568l53 146h142l-86 -146h-109z" />
    <glyph glyph-name="grave.cap" horiz-adv-x="260" 
d="M216 765l-65 146h168l13 -146h-116z" />
    <glyph glyph-name="acute.cap" horiz-adv-x="260" 
d="M176 765l75 146h168l-127 -146h-116z" />
    <glyph glyph-name="circumflex.cap" horiz-adv-x="260" 
d="M91 765l93 146h192l31 -146h-122l-19 80l-53 -80h-122z" />
    <glyph glyph-name="caron.cap" horiz-adv-x="260" 
d="M153 765l-31 146h122l19 -80l53 80h122l-93 -146h-192z" />
    <glyph glyph-name="tilde.cap" horiz-adv-x="260" 
d="M359 908h86q-22 -71 -56 -105.5t-73 -34.5q-30 0 -67 15t-48 15q-24 0 -29 -30h-86q47 140 127 140q25 0 62 -15q41 -15 50 -15q24 0 34 30z" />
    <glyph glyph-name="dieresis.cap" horiz-adv-x="260" 
d="M273 767l29 140h134l-29 -140h-134zM91 767l29 140h134l-29 -140h-134z" />
    <glyph glyph-name="macron.cap" horiz-adv-x="260" 
d="M97 788l20 98h316l-20 -98h-316z" />
    <glyph glyph-name="breve.cap" horiz-adv-x="260" 
d="M129 911h80q-4 -34 12.5 -50t44.5 -16q65 0 85 66h80q-19 -69 -65.5 -107.5t-116.5 -38.5t-100 38.5t-20 107.5z" />
    <glyph glyph-name="ring.cap" horiz-adv-x="260" 
d="M229 844q-5 -20 5.5 -33t29.5 -13t34.5 13t20.5 33q4 19 -6.5 32t-29.5 13t-34.5 -13t-19.5 -32zM160 844q8 47 48 78t89 31q48 0 73.5 -31t17.5 -78q-10 -48 -47 -78.5t-90 -30.5q-49 0 -75 31t-16 78z" />
    <glyph glyph-name="hungarumlaut.cap" horiz-adv-x="260" 
d="M266 765l75 146h168l-127 -146h-116zM66 765l75 146h168l-127 -146h-116z" />
    <glyph glyph-name="dotaccent.cap" horiz-adv-x="260" 
d="M182 767l29 140h134l-29 -140h-134z" />
    </font>
</defs>
</svg>
